<?xml version="1.0" standalone="no"?>
<!DOCTYPE svg PUBLIC "-//W3C//DTD SVG 20010904//EN"
 "http://www.w3.org/TR/2001/REC-SVG-20010904/DTD/svg10.dtd">
<svg version="1.0" xmlns="http://www.w3.org/2000/svg"
 width="460.000000pt" height="460.000000pt" viewBox="0 0 460.000000 460.000000"
 preserveAspectRatio="xMidYMid meet">
<metadata>
Created by potrace 1.14, written by Peter Selinger 2001-2017
</metadata>
<g transform="translate(0.000000,460.000000) scale(0.100000,-0.100000)"
fill="#000000" stroke="none">
<path d="M0 3616 c0 -778 3 -986 13 -990 9 -5 9 -7 0 -12 -10 -4 -13 -288 -13
-1310 l0 -1304 1530 0 c1450 0 1530 1 1530 18 1 15 2 15 16 -3 13 -17 16 -18
25 -5 8 11 12 12 16 3 2 -7 16 -13 30 -13 22 0 24 2 13 15 -7 9 -11 18 -8 21
6 6 58 -13 58 -21 0 -4 -5 -3 -12 1 -6 4 -8 3 -5 -3 4 -7 217 -11 634 -11 437
-1 623 2 613 9 -11 7 -4 9 25 4 22 -3 61 -9 87 -11 l48 -6 -2 41 c-1 34 -5 42
-25 47 -12 4 -35 3 -51 0 -18 -5 -22 -4 -13 3 11 7 10 10 -5 14 -10 3 7 3 39
0 l57 -6 0 51 0 50 -42 7 c-24 4 -54 13 -68 21 -23 12 -23 13 -4 14 11 0 24
-4 30 -9 5 -5 26 -13 47 -16 33 -6 37 -5 37 13 0 11 -6 23 -12 25 -10 4 -10 7
-1 14 8 6 12 33 12 75 -1 60 -3 67 -23 71 -20 4 -20 4 2 6 17 1 22 7 22 29 -1
25 -1 26 -15 8 -11 -14 -21 -17 -42 -11 -15 4 -49 7 -75 8 -26 0 -45 4 -42 9
5 8 -10 12 -36 8 -8 -1 -24 -9 -34 -18 -11 -10 -16 -11 -12 -5 9 17 -6 17 -23
0 -10 -10 -11 -9 -6 5 7 18 32 31 45 23 4 -3 10 2 13 10 4 9 1 12 -9 8 -8 -3
-14 1 -14 11 0 9 8 16 18 16 16 1 16 1 0 14 -10 7 -18 19 -18 27 0 9 3 10 8 3
4 -6 15 -13 24 -17 11 -4 15 -12 12 -22 -4 -10 0 -15 12 -15 15 0 16 2 5 9
-20 13 3 23 33 15 14 -3 23 -11 20 -16 -4 -6 -1 -8 7 -6 8 3 13 10 12 16 -5
23 24 32 73 23 43 -8 47 -8 30 5 -17 12 -17 14 -3 20 26 10 22 44 -5 43 -22 0
-22 -1 -3 -9 16 -7 17 -9 3 -9 -9 -1 -25 -9 -34 -18 -17 -17 -18 -17 -11 1 6
16 4 17 -18 12 -14 -4 -25 -2 -25 4 0 5 10 10 23 10 33 0 49 14 41 36 -5 16
-4 16 5 4 9 -13 11 -13 11 3 0 18 -8 21 -34 11 -8 -3 -12 -12 -9 -20 3 -8 0
-14 -6 -14 -6 0 -11 9 -11 21 0 18 -4 20 -32 14 l-33 -6 34 18 35 17 -34 7
c-36 8 -63 2 -55 -11 3 -5 -5 -6 -17 -3 -18 4 -20 3 -8 -6 13 -9 12 -13 -7
-31 -22 -20 -48 -26 -56 -12 -2 4 -2 2 -1 -5 2 -6 -4 -14 -12 -17 -21 -8 -22
-8 -21 7 1 48 -20 67 -30 27 -9 -33 -21 -23 -18 15 3 25 -1 35 -11 35 -8 0
-14 5 -14 10 0 13 1 13 57 -11 66 -29 93 -33 93 -15 0 8 8 20 17 26 17 11 17
11 0 6 -10 -3 -29 1 -43 10 -13 9 -24 12 -24 8 0 -5 -5 -2 -10 6 -6 9 -10 10
-10 3 0 -6 5 -15 10 -18 21 -13 -2 -23 -30 -13 -17 5 -28 14 -25 18 5 8 -88
40 -113 40 -6 0 -14 5 -17 11 -4 6 0 9 8 7 9 -2 16 2 16 7 0 6 -8 9 -17 7 -14
-2 -14 0 2 13 11 8 16 18 12 22 -4 4 -10 3 -14 -3 -12 -19 -52 -27 -52 -11 0
8 -10 17 -23 21 -37 10 -44 5 -12 -9 27 -13 27 -14 8 -15 -13 0 -23 -5 -23
-11 0 -5 5 -7 10 -4 16 10 12 -11 -5 -25 -12 -10 -16 -8 -24 11 -4 13 -6 30
-3 37 2 7 -1 12 -8 10 -7 -2 -14 3 -16 10 -1 7 0 8 3 2 3 -7 12 -5 24 6 10 9
16 21 13 26 -3 5 -11 2 -17 -7 -11 -14 -14 -14 -34 0 -12 9 -20 21 -18 28 3 6
0 19 -5 27 -8 13 -13 13 -31 2 -11 -7 -24 -11 -27 -8 -3 3 -1 6 5 6 15 0 24
28 12 35 -5 4 -8 3 -7 -2 2 -4 -1 -8 -7 -8 -5 0 -9 7 -8 15 1 8 -3 22 -8 31
-6 12 -4 19 7 23 24 9 31 7 14 -4 -12 -8 -9 -10 13 -10 15 0 27 -4 27 -10 0
-5 7 -10 15 -10 8 0 15 5 15 10 0 6 -5 10 -11 10 -6 0 -8 9 -3 22 6 21 5 21
-10 9 -13 -11 -22 -12 -42 -2 -14 6 -23 15 -20 20 9 13 -17 30 -39 26 -11 -2
-27 -4 -35 -5 -10 -1 -11 -3 -2 -7 19 -7 15 -23 -13 -49 -31 -29 -32 -37 -3
-29 22 7 22 6 4 -7 -17 -14 -17 -16 13 -44 17 -16 31 -32 31 -36 0 -5 -9 1
-20 12 -11 11 -28 20 -37 19 -12 0 -13 -2 -5 -6 10 -4 10 -8 0 -21 -11 -13
-10 -15 8 -10 18 5 22 2 19 -18 -2 -22 17 -37 41 -33 21 4 34 -2 34 -15 0 -11
7 -13 30 -6 19 5 28 5 25 -1 -4 -5 -13 -9 -21 -9 -8 0 -14 -4 -14 -8 0 -15 24
-32 47 -32 14 0 23 -6 23 -15 0 -8 -5 -15 -11 -15 -5 0 -7 5 -4 10 6 9 -21 14
-70 11 -11 0 -14 2 -7 5 6 3 12 10 12 15 0 19 -40 -12 -46 -36 -3 -14 -11 -22
-16 -19 -6 4 -5 -2 1 -14 17 -33 14 -44 -10 -30 -13 8 -19 21 -16 34 2 13 -4
26 -16 33 -24 16 -32 8 -33 -33 0 -27 3 -32 16 -29 21 6 34 -23 20 -45 -8 -14
-9 -13 -10 8 -1 30 -13 12 -24 -34 -6 -25 -5 -28 11 -22 17 6 17 5 -1 -8 -17
-14 -16 -16 19 -30 45 -19 42 -19 42 -2 0 8 -8 11 -19 8 -25 -6 -23 15 3 23
26 8 33 1 34 -33 0 -22 5 -28 30 -30 17 -2 34 -7 38 -11 13 -13 -81 5 -96 18
-8 6 -23 8 -32 4 -14 -5 -16 -3 -10 7 6 10 4 12 -9 7 -11 -4 -15 -3 -11 4 4 6
-2 13 -14 16 -23 6 -28 28 -9 37 7 3 3 3 -9 0 -17 -4 -21 -2 -18 9 5 10 -1 13
-24 9 -25 -3 -33 0 -40 19 -5 13 -10 21 -10 16 -1 -4 -14 -1 -30 8 -17 8 -32
11 -36 6 -3 -5 4 -12 15 -16 11 -3 20 -11 20 -16 0 -5 7 -9 15 -9 8 0 15 -7
15 -15 0 -8 -4 -15 -10 -15 -5 0 -10 4 -10 9 0 5 -6 11 -14 14 -10 4 -12 0 -9
-14 3 -10 0 -19 -6 -19 -6 0 -11 7 -11 15 0 8 -8 15 -17 15 -15 0 -16 2 -3 10
16 10 15 11 -23 28 -19 8 -27 18 -23 27 3 9 -1 15 -10 15 -12 0 -12 2 -2 14
11 12 14 12 21 0 4 -8 5 -19 2 -24 -3 -6 1 -10 9 -10 9 0 19 0 23 -1 4 0 9 4
11 10 2 6 -3 11 -11 11 -15 0 -17 16 -4 36 4 7 -1 15 -10 19 -10 3 -19 1 -21
-4 -2 -6 -17 -11 -32 -11 -31 0 -48 -15 -28 -23 8 -4 7 -6 -3 -6 -9 -1 -20 6
-23 14 -4 11 3 17 24 22 17 3 30 9 30 14 0 4 17 10 38 12 30 3 27 4 -18 6 -46
2 -51 4 -31 12 13 5 33 7 44 3 12 -4 17 -2 13 4 -3 5 1 12 9 16 8 3 19 -3 24
-12 9 -15 11 -13 11 16 0 4 -4 7 -9 7 -18 0 -23 14 -12 32 7 13 10 14 11 4 0
-12 3 -11 13 2 7 10 29 19 55 21 42 3 42 3 25 -16 -17 -19 -17 -19 12 -12 30
7 47 22 39 35 -2 4 -25 5 -51 4 -54 -3 -76 5 -47 16 16 6 14 8 -9 8 -16 1 -30
-5 -33 -14 -4 -8 -10 -15 -16 -15 -5 0 -7 4 -3 9 3 5 -3 17 -12 27 -16 16 -16
16 2 11 25 -8 53 7 35 18 -9 6 -6 12 11 21 22 12 21 13 -21 9 -25 -1 -39 -1
-32 2 6 3 10 8 8 12 -3 4 10 5 29 3 38 -5 57 15 23 23 -29 7 -77 -9 -84 -30
-4 -8 -10 -15 -15 -15 -18 0 -8 15 21 35 l30 20 -33 12 c-17 6 -25 12 -17 12
13 1 13 2 0 11 -12 8 -12 10 5 11 11 0 14 3 8 6 -28 11 -10 19 43 19 31 1 50
-2 44 -6 -8 -5 -5 -9 9 -13 26 -6 37 9 21 28 -16 19 -1 19 25 1 13 -8 27 -10
40 -5 19 7 19 8 -2 8 -37 1 -34 17 3 18 20 1 33 -1 30 -4 -7 -7 20 -33 35 -33
9 0 9 3 0 14 -18 21 1 28 56 21 34 -4 44 -3 33 4 -8 6 -53 10 -100 9 -47 -1
-95 2 -108 6 -16 5 -24 3 -28 -8 -3 -9 -10 -13 -16 -10 -5 3 -7 11 -5 18 3 7
-9 12 -32 13 -26 2 -32 0 -21 -7 12 -8 11 -10 -8 -10 -13 0 -21 -4 -18 -9 7
-10 31 -9 42 2 19 19 30 3 15 -21 -6 -11 -17 -11 -46 -3 -30 8 -44 7 -67 -5
-16 -8 -52 -17 -81 -19 -36 -3 -46 -1 -32 5 11 5 30 9 43 9 12 1 22 6 22 12 0
7 -10 9 -27 4 -23 -5 -25 -4 -14 9 7 8 20 12 28 9 11 -5 14 -3 9 6 -6 10 -4
10 12 0 12 -7 18 -18 15 -24 -3 -5 0 -4 8 2 7 7 22 13 34 14 11 0 0 7 -25 15
-25 7 -51 11 -59 9 -12 -5 -12 -3 0 11 11 14 10 16 -6 13 -22 -4 -45 7 -45 21
0 6 11 5 26 0 39 -15 53 -11 22 6 -34 18 -36 24 -5 17 22 -5 22 -5 2 10 -11 9
-15 17 -8 17 6 0 15 -4 18 -10 3 -5 16 -10 28 -10 21 1 21 1 -3 16 l-25 15 24
-7 c20 -5 23 -3 18 10 -6 14 -3 15 16 5 20 -11 20 -13 4 -18 -10 -4 -18 -11
-17 -16 1 -5 -7 -13 -17 -17 -10 -4 4 -6 32 -4 28 2 42 2 32 -1 -9 -2 -15 -9
-12 -13 3 -5 17 -5 33 0 l27 10 -24 -20 c-13 -11 -18 -20 -13 -20 6 0 14 5 17
10 4 6 10 8 15 5 4 -3 7 6 5 20 -2 25 9 34 20 15 3 -5 11 -10 17 -10 7 0 2 9
-10 21 -12 11 -28 17 -35 13 -9 -5 -9 -4 0 6 13 14 69 5 79 -12 4 -7 2 -8 -4
-4 -7 4 -12 2 -12 -3 0 -6 5 -11 11 -11 5 0 7 -4 4 -10 -4 -6 10 -10 34 -10
23 0 41 -4 41 -10 0 -5 3 -9 8 -9 4 1 9 0 12 -1 3 -1 19 -3 35 -5 28 -4 28 -3
-7 12 -21 9 -38 19 -38 23 0 5 -9 6 -20 3 -22 -6 -28 12 -7 20 7 3 4 6 -6 6
-10 1 -16 5 -12 10 3 6 -3 14 -12 20 -10 6 -12 11 -5 11 6 0 12 6 12 14 0 8 6
16 13 19 6 2 8 8 4 13 -5 5 -15 1 -22 -10 -8 -10 -18 -15 -24 -11 -6 3 -11 1
-11 -5 0 -6 -11 -8 -27 -5 -27 5 -27 5 -5 -5 13 -5 29 -7 34 -3 6 3 8 1 4 -5
-3 -6 -24 -9 -47 -7 -41 3 -68 15 -34 15 18 0 18 0 0 13 -14 11 -15 16 -5 22
9 5 11 4 6 -3 -5 -8 2 -12 21 -12 27 1 27 1 8 16 -20 16 -19 16 4 9 44 -13 56
-12 69 7 10 13 17 16 26 9 8 -7 15 -4 24 9 7 12 8 21 2 25 -6 3 -10 0 -10 -7
0 -10 -2 -10 -9 1 -5 8 -7 20 -4 27 3 9 -6 11 -36 7 -41 -6 -60 11 -23 20 9 2
5 3 -10 2 -17 -1 -28 4 -28 11 0 7 -6 14 -12 17 -7 2 9 3 35 1 26 -2 55 -10
63 -19 19 -19 33 -19 30 -1 -3 19 -32 46 -50 46 -9 0 -16 5 -16 11 0 5 -4 7
-10 4 -5 -3 -10 1 -10 9 0 12 10 16 39 16 22 0 43 -5 46 -10 8 -13 25 -13 25
1 0 5 -4 7 -10 4 -5 -3 -10 -1 -10 4 0 6 7 11 15 11 9 0 18 7 21 15 4 8 18 15
33 16 22 0 23 2 7 8 -17 7 -18 8 -3 14 9 3 32 0 51 -8 20 -9 37 -11 41 -6 3 5
-9 12 -26 16 -30 7 -30 7 -10 22 29 20 26 36 -4 31 -14 -3 -25 -1 -25 3 0 5
-6 9 -14 9 -7 0 -19 7 -26 15 -10 12 -10 18 0 30 13 15 35 21 26 7 -2 -4 -1
-14 3 -21 6 -10 15 -7 35 12 l26 24 -25 -5 c-40 -7 -31 23 22 73 26 25 44 45
40 45 -4 0 13 21 38 46 25 25 49 43 54 39 5 -3 12 -1 16 5 3 5 1 10 -4 10 -21
0 -10 28 22 57 39 34 111 133 97 133 -6 0 -10 -3 -10 -7 0 -5 -24 -34 -53 -65
-30 -32 -78 -86 -108 -120 -29 -35 -62 -69 -72 -77 -11 -7 -31 -27 -46 -43
-14 -17 -39 -44 -56 -62 -48 -51 -76 -86 -132 -166 -75 -106 -95 -132 -117
-150 -27 -22 -86 -86 -105 -112 -8 -13 -30 -39 -47 -58 -35 -38 -75 -89 -125
-160 -18 -25 -49 -65 -69 -90 -20 -25 -57 -74 -82 -110 -25 -36 -70 -93 -99
-126 -30 -34 -61 -70 -69 -81 -8 -10 -32 -31 -52 -46 -21 -15 -37 -32 -35 -36
1 -5 -16 -33 -37 -63 -22 -29 -58 -78 -80 -108 -23 -30 -72 -92 -109 -138 -53
-64 -74 -82 -90 -80 -12 2 -21 9 -20 16 2 6 -2 12 -7 12 -27 0 6 70 70 150 20
25 52 68 70 95 37 55 217 282 320 405 36 42 90 112 120 154 60 85 127 173 147
194 7 7 13 18 13 23 0 5 29 40 65 78 51 54 62 70 49 75 -9 3 -21 3 -26 -1 -7
-3 -8 -1 -4 5 4 7 17 10 30 6 15 -3 27 1 37 13 13 16 12 17 -3 5 -9 -8 -22
-11 -28 -7 -6 4 -23 4 -38 0 l-27 -7 24 -19 23 -19 -26 0 c-16 0 -25 4 -21 10
3 6 -4 10 -17 10 -22 1 -22 1 -4 15 19 15 19 15 -2 15 -12 0 -22 -4 -22 -10 0
-5 -15 -10 -32 -9 -31 1 -31 1 -8 8 l25 7 -24 8 c-14 5 -26 4 -30 -2 -4 -7
-23 -6 -56 3 -28 8 -40 14 -28 14 12 1 25 6 28 11 4 7 -3 9 -22 5 -25 -5 -24
-4 5 8 18 7 30 16 26 20 -4 4 -3 7 3 7 6 0 13 -9 16 -20 4 -14 13 -20 34 -19
20 1 23 3 8 6 -28 7 -43 23 -21 23 9 0 14 5 11 10 -4 6 -10 8 -15 5 -12 -8
-41 6 -34 16 3 5 17 7 32 4 27 -5 27 -5 -2 6 -21 9 -25 14 -15 20 20 13 37 11
19 -2 -12 -8 -9 -9 13 -5 15 4 27 2 27 -3 0 -6 7 -8 16 -4 13 5 10 9 -12 19
-20 10 -22 12 -6 8 15 -4 22 -1 20 6 -2 7 3 15 11 18 8 3 11 0 7 -6 -4 -6 2
-16 13 -22 12 -6 18 -16 15 -25 -4 -10 0 -15 12 -15 38 0 65 13 60 26 -6 16 3
18 24 4 11 -7 11 -10 2 -10 -10 0 -10 -3 0 -14 7 -7 17 -13 23 -13 5 0 21 -1
35 -2 23 -2 24 -3 5 -11 -15 -6 -16 -9 -4 -9 19 -1 55 36 46 46 -4 3 -7 1 -7
-5 0 -14 -45 -15 -75 -2 -11 5 -16 9 -11 9 5 1 4 7 -1 13 -11 15 -11 28 0 46
7 10 3 10 -18 0 -23 -10 -24 -13 -9 -18 16 -6 15 -7 -4 -12 -31 -8 -64 2 -58
17 4 12 -20 30 -36 27 -3 -1 -9 5 -12 14 -3 8 -2 12 4 9 6 -3 10 -1 10 5 0 6
4 9 9 6 5 -4 7 3 4 15 -6 20 -5 20 39 -3 25 -13 43 -25 39 -28 -15 -12 -9 -28
9 -23 11 3 17 9 14 14 -10 17 9 9 22 -9 12 -16 14 -16 28 3 19 24 16 39 -10
44 -17 3 -17 2 -4 -15 14 -16 13 -17 -3 -11 -10 4 -22 7 -25 7 -4 0 9 14 28
30 l35 29 -34 -4 c-35 -4 -32 9 4 19 11 3 7 4 -10 2 -33 -5 -69 10 -60 25 4 5
13 9 21 9 9 0 12 -5 8 -11 -4 -7 -1 -10 7 -7 8 3 13 13 12 22 0 11 4 15 13 12
21 -8 27 11 7 24 -15 9 -14 10 7 5 l25 -6 -24 14 c-16 9 -20 17 -12 21 6 4 9
11 6 16 -6 9 95 -17 105 -27 3 -3 -11 -2 -30 1 -20 4 -30 4 -23 -1 7 -5 9 -14
3 -22 -11 -19 12 -41 42 -41 18 0 20 2 8 10 -10 6 -11 10 -2 10 6 0 12 5 12
11 0 7 -10 9 -27 5 -19 -4 -23 -3 -13 3 27 15 63 24 56 13 -3 -6 -1 -14 5 -18
8 -5 9 -3 4 6 -5 9 -1 10 16 6 l24 -7 -23 14 c-12 7 -19 17 -15 22 4 4 3 5 -4
1 -12 -7 -45 8 -71 32 -11 10 -10 12 5 12 17 1 17 2 -1 15 -20 15 -20 15 0 15
10 0 26 5 34 11 12 8 10 9 -7 4 -14 -4 -23 -2 -23 4 0 6 8 11 18 11 14 0 15 2
2 10 -11 7 -11 10 -2 10 7 0 10 4 7 10 -3 5 -1 10 4 10 6 0 11 -4 11 -10 0 -5
10 -10 22 -10 21 0 21 0 2 22 -10 12 -14 18 -7 14 7 -4 18 2 25 14 7 11 22 20
33 21 15 0 16 2 5 7 -20 9 -24 32 -4 32 8 0 13 -4 10 -9 -3 -5 1 -11 9 -15 18
-7 20 10 3 20 -9 6 -5 11 12 16 20 6 19 7 -8 3 -27 -4 -30 -2 -20 9 7 7 21 11
31 8 24 -6 18 20 -7 31 -10 4 -20 6 -21 5 -4 -8 -133 -161 -183 -218 -31 -36
-109 -119 -173 -185 -64 -66 -145 -151 -180 -190 -35 -38 -97 -104 -139 -146
-97 -98 -304 -327 -309 -342 -2 -7 -8 -16 -15 -22 -6 -5 -55 -62 -108 -125
-106 -127 -149 -168 -191 -182 -16 -6 -42 -32 -63 -64 -20 -30 -44 -60 -54
-67 -28 -19 -69 -87 -63 -103 3 -8 0 -14 -7 -14 -6 0 -8 -4 -5 -10 3 -5 0 -7
-9 -4 -9 3 -17 -3 -21 -18 -4 -13 -15 -32 -24 -42 -9 -11 -10 -16 -4 -12 9 5
11 2 7 -8 -3 -9 -12 -16 -20 -16 -7 0 -21 -15 -30 -32 -9 -18 -27 -46 -40 -63
-13 -16 -38 -49 -56 -73 -18 -24 -48 -59 -65 -80 -18 -20 -33 -39 -33 -43 0
-15 -57 -36 -74 -27 -20 11 -21 55 -1 88 8 14 18 33 21 42 3 10 9 18 13 18 4
0 15 15 26 33 31 52 116 163 255 332 23 28 60 75 83 105 23 30 44 57 47 60 3
3 21 25 40 50 18 25 45 56 59 71 14 14 42 44 61 68 19 24 42 51 50 61 8 10 33
39 55 66 104 125 171 204 219 259 29 33 68 78 87 99 l34 39 -32 -5 c-24 -3
-30 -1 -25 10 4 12 -1 14 -21 10 -14 -3 -28 0 -30 6 -2 6 -23 10 -47 9 l-44
-2 28 14 c32 17 50 19 42 6 -3 -5 8 -11 25 -15 43 -8 51 -8 44 4 -3 6 1 7 10
3 12 -4 13 -8 5 -13 -7 -4 2 -10 21 -13 30 -5 38 -1 76 40 24 25 40 50 37 54
-3 5 1 9 9 9 7 0 23 10 35 23 l22 23 -30 2 c-36 3 -84 20 -57 21 9 1 17 6 17
12 0 7 -10 9 -25 5 -14 -4 -25 -3 -25 2 0 5 -6 9 -13 9 -7 0 -24 3 -39 6 -18
5 -28 2 -31 -8 -4 -9 -1 -12 9 -8 7 3 14 1 14 -4 0 -5 -13 -13 -29 -19 -21 -9
-34 -8 -52 2 -23 12 -23 12 14 19 20 4 35 11 32 15 -3 4 2 10 10 14 8 3 13 11
11 18 -1 7 -1 10 1 6 7 -12 33 -10 33 2 0 6 8 11 18 11 9 1 1 5 -18 9 l-35 7
32 2 c19 0 36 8 42 19 8 13 10 14 11 2 0 -12 2 -12 9 -2 11 17 21 17 32 0 7
-10 9 -8 9 6 0 12 -5 16 -15 13 -15 -6 -29 6 -19 16 8 8 78 -14 86 -27 6 -8 8
-7 8 2 0 9 7 11 21 7 15 -5 19 -4 15 4 -4 6 -16 11 -27 11 -11 0 -19 7 -19 18
0 9 -4 23 -9 31 -12 18 -42 7 -35 -13 3 -8 12 -12 20 -9 8 3 14 0 14 -7 0 -8
-10 -9 -32 -5 -41 9 -45 12 -31 26 6 6 9 17 7 24 -8 21 48 26 76 7 14 -9 28
-16 32 -14 4 1 4 -6 1 -15 -4 -11 -8 -13 -11 -5 -6 20 -20 13 -15 -7 5 -21 41
-34 70 -25 10 3 7 -1 -7 -10 -25 -14 -25 -14 13 -11 20 2 37 -1 37 -6 0 -5 -5
-9 -11 -9 -5 0 -7 -4 -4 -10 3 -5 -1 -10 -9 -10 -9 0 -16 -4 -16 -9 0 -5 -8
-12 -17 -14 -17 -4 -16 -5 0 -6 18 -1 104 76 95 85 -3 2 -17 5 -31 6 -15 1
-27 6 -27 10 0 10 -1 10 37 -1 27 -8 34 -6 58 19 17 17 25 35 22 44 -4 9 -2
16 3 16 6 0 10 -5 10 -11 0 -7 11 0 26 16 14 15 22 30 19 34 -4 3 -13 -3 -21
-13 -7 -11 -17 -16 -21 -13 -9 10 29 37 47 34 18 -4 92 72 161 163 18 25 55
70 81 99 26 30 48 58 48 61 0 3 -10 7 -22 7 -13 1 -24 7 -26 13 -2 5 -11 10
-20 11 -15 0 -14 1 1 8 10 4 18 11 17 15 -1 5 4 13 12 17 10 6 8 9 -7 9 -17 0
-17 2 -5 10 13 9 13 10 0 10 -13 0 -13 1 0 10 13 8 12 10 -2 10 -13 0 -18 -8
-18 -26 0 -18 -6 -28 -21 -31 -16 -4 -17 -8 -7 -14 10 -7 11 -9 0 -9 -7 0 -11
-4 -7 -10 7 -11 -25 -50 -41 -50 -7 0 -10 8 -7 20 3 11 13 20 22 20 13 0 13 2
2 9 -11 7 -11 9 0 14 12 5 12 6 0 6 -11 1 -11 4 -1 16 7 8 16 12 21 9 13 -8
10 8 -7 36 l-14 25 2 -25 c3 -30 -8 -50 -25 -46 -7 1 -9 1 -4 -1 13 -8 8 -36
-10 -55 -17 -19 -16 -20 5 -37 27 -20 19 -33 -17 -25 -24 4 -23 4 4 -9 l30
-14 -30 -8 c-16 -5 -43 -9 -58 -9 -15 -1 -31 -6 -35 -11 -15 -22 -73 -17 -98
9 -21 21 -22 25 -8 30 10 4 22 -1 31 -11 13 -17 14 -16 8 5 -4 15 -2 22 7 22
10 0 9 3 -2 10 -28 18 39 11 79 -8 29 -14 38 -15 38 -5 0 7 -2 11 -4 9 -5 -5
-101 28 -111 39 -4 4 4 4 17 0 17 -5 22 -4 16 5 -6 10 -1 11 19 6 18 -4 25 -3
21 4 -3 5 -16 10 -28 11 -20 1 -19 2 6 13 15 7 24 15 21 19 -4 4 -2 7 5 7 7 0
10 4 7 8 -3 5 4 16 16 26 17 15 22 16 29 5 6 -10 9 -6 9 14 0 34 40 58 64 38
9 -7 17 -8 20 -2 3 5 0 12 -6 14 -10 4 -9 8 2 16 10 7 11 11 3 11 -7 0 -13 5
-13 11 0 5 5 7 10 4 6 -3 11 -1 11 4 3 26 4 30 12 37 4 4 7 2 7 -5 0 -9 4 -9
14 1 8 7 12 16 10 19 -2 4 3 10 12 13 9 4 14 9 11 12 -9 10 17 32 30 27 7 -3
13 2 13 11 0 9 3 16 8 16 10 0 50 39 87 84 16 20 36 36 44 36 8 0 11 3 8 7 -9
9 22 43 40 43 7 0 13 7 13 15 0 8 7 15 16 15 8 0 13 4 10 9 -3 4 7 6 22 4 19
-3 23 -2 13 5 -11 8 -10 13 5 31 10 11 24 21 32 21 7 0 10 5 6 12 -5 8 -2 9 9
5 11 -4 17 -1 17 8 0 8 9 15 20 15 22 0 27 15 8 23 -7 3 -3 6 9 6 12 1 27 10
33 21 6 11 16 17 25 14 21 -8 67 5 60 16 -3 6 -1 10 4 10 9 0 12 -8 11 -35 0
-3 8 -15 19 -26 14 -15 26 -19 38 -14 17 7 17 7 -1 14 -15 6 -10 10 22 19 46
14 61 36 26 38 -13 1 -22 -2 -19 -6 5 -9 -55 -23 -64 -15 -3 3 5 8 17 12 12 3
22 10 22 15 0 5 -9 7 -19 3 -11 -3 -25 1 -34 9 -8 8 -17 13 -19 11 -3 -3 -5 1
-5 9 0 8 11 20 24 27 13 7 23 18 23 25 0 15 28 26 43 17 7 -3 9 -3 5 2 -4 4 2
16 13 26 15 13 27 16 43 9 20 -7 22 -6 18 15 -3 21 -1 23 19 18 22 -6 22 -7 3
-14 -19 -7 -19 -7 0 -15 27 -10 59 -44 44 -44 -9 0 -8 -4 2 -11 11 -7 4 -8
-25 -5 l-40 6 32 -12 c25 -8 36 -8 48 2 8 7 12 16 9 21 -2 5 6 11 20 15 13 3
27 12 30 19 3 10 -3 9 -24 -3 -28 -16 -58 -9 -31 7 10 7 8 12 -8 23 -11 8 -18
18 -14 21 10 10 73 8 73 -2 0 -5 6 -11 14 -14 26 -10 52 4 66 36 7 18 20 37
29 43 20 15 107 12 104 -4 -2 -7 6 -12 16 -12 24 0 17 40 -8 40 -14 1 -14 2 2
14 26 20 20 36 -14 36 -17 0 -28 -4 -24 -10 3 -6 -1 -7 -10 -3 -23 8 1 23 38
23 16 0 26 4 22 9 -3 5 3 12 12 14 17 4 17 5 1 6 -10 0 -18 7 -18 15 0 8 -6
17 -12 20 -9 4 -8 5 2 5 8 -1 29 0 45 1 l30 2 -30 8 c-16 4 -23 8 -14 9 17 1
36 31 20 31 -5 0 -11 6 -14 13 -4 10 2 13 21 10 21 -4 24 -2 12 6 -9 6 -10 11
-3 11 8 0 12 51 13 189 l1 189 -38 13 c-119 38 -212 108 -254 191 -16 31 -29
60 -29 64 0 3 41 -37 91 -90 51 -53 94 -95 96 -92 3 3 21 -4 41 -14 21 -10 49
-22 65 -26 l27 -6 0 127 c0 119 -1 128 -22 146 -13 10 -27 19 -33 19 -5 0 -28
17 -51 38 -23 20 -49 42 -59 47 -12 7 -18 24 -19 52 0 23 -4 39 -9 36 -5 -3
-7 8 -6 23 2 16 0 45 -5 64 -5 25 -3 44 8 65 21 40 20 45 -8 45 -21 0 -24 -5
-27 -42 -2 -24 -2 -61 0 -83 2 -32 5 -36 11 -20 7 16 9 12 9 -17 1 -27 -3 -38
-13 -38 -13 0 -29 53 -38 130 -3 22 -6 20 -26 -22 -23 -47 -63 -92 -49 -55 4
11 2 17 -8 17 -27 0 -15 20 13 21 l27 1 -30 8 c-29 7 -29 8 10 9 l40 1 -25 20
c-17 13 -20 20 -10 20 8 0 23 12 33 25 l18 25 -691 0 c-453 0 -690 -3 -690
-10 0 -5 -11 -10 -25 -10 -18 0 -25 -5 -25 -20 0 -11 -6 -20 -14 -20 -27 0
-27 -20 -2 -32 21 -9 26 -18 26 -45 0 -20 -4 -32 -10 -28 -5 3 -10 -3 -10 -14
0 -12 -5 -21 -10 -21 -6 0 -9 3 -9 8 5 32 -23 46 -35 16 -3 -8 -2 -12 4 -9 6
3 10 2 10 -3 0 -5 -13 -12 -29 -15 -23 -5 -30 -11 -29 -29 1 -13 6 -29 12 -37
8 -10 8 -15 -1 -18 -7 -3 -13 -15 -13 -28 0 -35 -18 -75 -32 -74 -9 0 -9 2 -2
5 7 3 10 13 7 22 -3 14 -13 16 -54 13 -53 -3 -55 -6 -34 -63 3 -7 -5 -18 -17
-24 -13 -6 -43 -21 -67 -34 -24 -12 -52 -19 -63 -16 -18 4 -19 1 -14 -25 3
-16 2 -29 -3 -29 -4 0 -20 -12 -34 -26 -20 -19 -34 -25 -59 -22 -32 3 -33 1
-34 -32 0 -19 -1 -41 -2 -47 -3 -19 -53 -16 -68 5 -12 15 -13 14 -14 -11 0
-32 -32 -67 -60 -67 -14 0 -20 -7 -20 -21 0 -17 -4 -20 -22 -15 -46 14 -53 12
-50 -15 4 -30 -22 -46 -44 -28 -11 9 -14 8 -14 -4 0 -9 -6 -15 -12 -13 -7 1
-10 1 -5 -1 10 -7 9 -33 -3 -33 -5 0 -7 -8 -4 -17 5 -14 4 -15 -4 -4 -8 12
-15 12 -41 1 -17 -7 -31 -17 -31 -22 0 -5 -10 0 -21 11 -26 24 -59 13 -59 -20
0 -30 -41 -42 -61 -19 -18 21 -29 17 -29 -12 0 -10 -6 -19 -12 -19 -46 -4 -71
-9 -76 -14 -3 -3 -16 5 -29 17 -16 15 -23 17 -23 7 0 -22 -56 -42 -101 -36
-23 3 -39 1 -39 -5 0 -6 -7 -8 -15 -4 -9 3 -15 0 -15 -8 0 -9 -15 -15 -39 -18
-22 -2 -38 0 -35 3 2 4 -11 9 -29 13 -19 4 -33 2 -35 -4 -2 -5 -8 -8 -13 -4
-5 3 -9 0 -9 -5 0 -6 -5 -11 -11 -11 -7 0 -20 -9 -29 -20 -14 -16 -19 -18 -23
-6 -3 9 2 16 15 19 12 4 17 10 13 17 -4 7 -16 10 -26 7 -11 -3 -23 1 -28 10
-7 13 -9 13 -14 0 -6 -17 -57 -11 -57 7 0 6 -4 6 -9 -3 -5 -8 -11 -9 -15 -3
-3 6 -15 8 -26 5 -15 -4 -20 0 -20 14 0 17 6 19 37 17 66 -5 194 16 242 41 60
30 107 77 137 137 32 64 32 105 -2 118 -16 6 -23 15 -18 22 4 7 -3 3 -15 -9
-26 -27 -31 -27 -75 -9 -33 14 -44 43 -22 58 7 5 4 8 -6 8 -12 0 -18 -8 -18
-23 0 -25 -36 -62 -45 -47 -8 13 -55 13 -55 0 0 -5 5 -10 12 -10 6 0 9 -2 6
-5 -3 -3 -13 -3 -22 1 -15 6 -15 9 5 30 14 15 29 22 40 19 12 -4 21 3 30 24
11 25 18 29 39 24 14 -3 32 -9 41 -14 17 -9 29 -3 29 14 0 5 -7 7 -14 4 -10
-4 -13 -1 -9 8 3 8 9 13 13 10 5 -3 11 -1 15 4 3 6 12 8 21 4 8 -3 22 1 32 9
9 8 35 24 57 35 154 78 172 91 184 135 23 89 12 204 -24 230 -5 4 -7 8 -4 8 4
0 -2 28 -12 62 -11 34 -17 68 -15 75 8 20 -44 16 -60 -4 -13 -17 -14 -17 -8 0
6 16 -10 17 -245 17 -208 0 -251 -2 -251 -14 0 -32 -49 -25 -50 7 0 6 -300 11
-300 4 0 -1 16 -32 35 -67 19 -36 44 -83 55 -105 34 -67 75 -128 89 -133 9 -3
11 0 7 7 -4 7 -2 18 4 26 7 8 9 15 5 15 -4 0 4 11 19 25 15 14 32 23 37 20 5
-4 9 -1 9 5 0 6 5 8 10 5 16 -10 66 31 80 65 21 51 28 41 65 -84 20 -66 16
-80 -31 -105 -16 -9 -54 -33 -84 -54 -30 -20 -58 -37 -62 -37 -3 0 -19 12 -35
28 -24 22 -67 51 -105 70 -3 2 -4 -5 -1 -16 2 -11 22 -29 44 -41 49 -28 71
-50 63 -63 -3 -5 -17 -7 -30 -4 -20 5 -24 3 -24 -15 0 -13 5 -19 13 -16 8 3
14 0 14 -7 0 -7 -9 -13 -19 -13 -21 -2 -44 29 -57 75 -8 26 -7 30 7 24 14 -5
15 -4 2 10 -8 8 -20 14 -26 11 -7 -2 -15 0 -19 6 -3 6 1 11 9 11 9 0 16 4 16
9 0 6 -8 10 -17 9 -10 0 -46 3 -80 7 -55 7 -63 11 -63 29 0 12 -9 27 -20 34
-12 7 -19 21 -17 34 2 25 -30 38 -43 18 -5 -9 -9 -9 -14 -1 -4 6 -2 11 3 11 6
0 11 5 11 10 0 6 -9 10 -19 10 -11 0 -22 8 -25 18 -4 10 -20 28 -36 40 -18 14
-30 32 -30 45 0 24 -36 53 -59 48 -9 -2 -12 4 -8 18 4 17 2 19 -12 11 -21 -11
-61 -9 -61 2 0 4 -88 8 -195 8 l-195 0 0 -984z m1677 942 c-3 -8 -6 -5 -6 6
-1 11 2 17 5 13 3 -3 4 -12 1 -19z m-1228 -20 c15 -42 6 -48 -13 -9 -18 35
-19 41 -7 41 5 0 14 -14 20 -32z m3027 -12 c58 -58 42 -140 -22 -116 -24 10
-33 7 -68 -17 -23 -16 -42 -34 -42 -41 -1 -7 -2 -16 -3 -22 0 -5 -7 -10 -13
-10 -7 0 -40 -25 -73 -55 -33 -30 -63 -55 -67 -55 -4 0 -22 -15 -40 -32 -18
-18 -89 -85 -157 -148 -80 -75 -202 -208 -350 -384 -124 -148 -237 -282 -251
-297 -14 -15 -54 -60 -90 -100 -107 -121 -164 -179 -179 -179 -7 0 -11 -6 -8
-14 4 -10 1 -13 -9 -9 -10 4 -17 -2 -21 -16 -3 -11 -12 -21 -20 -21 -9 0 -13
-6 -9 -15 3 -8 2 -15 -3 -15 -9 0 -104 -91 -139 -133 -12 -15 -20 -33 -16 -39
4 -7 3 -8 -4 -4 -6 4 -18 -1 -27 -11 -9 -10 -85 -88 -168 -175 -84 -86 -179
-185 -212 -220 -128 -134 -447 -438 -456 -432 -5 3 -9 0 -9 -6 0 -6 -15 -26
-34 -43 -18 -18 -36 -41 -40 -53 -3 -11 -20 -34 -38 -50 l-31 -29 26 39 c15
22 25 42 22 44 -7 7 -99 -60 -127 -92 -14 -17 -29 -28 -33 -24 -11 11 23 58
48 67 12 5 21 11 20 15 -9 21 5 35 72 70 41 22 75 43 75 46 0 4 9 17 20 30 11
13 20 37 20 54 0 59 20 105 57 133 41 32 127 113 120 113 -3 0 8 14 23 30 32
34 42 38 33 13 -5 -14 0 -12 24 7 32 25 41 46 23 52 -6 2 17 32 50 68 33 36
73 80 88 99 15 19 34 42 43 50 9 9 61 68 115 131 55 63 113 131 130 150 17 19
51 58 75 85 24 28 52 59 62 70 10 11 36 43 59 70 49 60 118 139 176 203 24 26
69 81 100 122 31 41 103 134 161 205 58 72 111 137 118 145 122 153 184 221
306 343 l99 98 -4 55 c-1 30 0 54 4 54 4 0 8 -23 10 -50 l3 -50 42 38 c65 60
230 182 245 182 5 0 21 9 36 20 35 26 181 90 206 90 10 0 33 -15 52 -34z m774
-106 c0 -5 -7 -10 -15 -10 -8 0 -12 -6 -10 -13 5 -11 -32 -43 -40 -35 -2 2 5
18 17 36 19 30 48 44 48 22z m-65 -80 c-16 -4 -24 -8 -17 -9 6 0 12 -6 12 -12
0 -6 -7 -9 -15 -5 -8 3 -15 1 -15 -4 0 -6 6 -10 13 -10 6 0 3 -6 -8 -12 -11
-6 -23 -16 -26 -21 -4 -5 -12 -6 -19 -2 -9 6 -6 11 10 20 25 13 16 24 -23 27
-14 1 -23 6 -21 10 3 5 16 5 30 2 14 -4 24 -2 24 4 0 12 24 20 60 20 22 0 22
-1 -5 -8z m-1325 -39 c0 -11 -4 -23 -10 -26 -6 -4 -10 5 -10 19 0 14 5 26 10
26 6 0 10 -9 10 -19z m1224 -16 c-4 -8 -11 -12 -16 -9 -6 4 -5 10 3 15 19 12
19 11 13 -6z m-2834 -58 c0 -20 -23 -41 -89 -82 -9 -5 -30 -20 -48 -32 -39
-28 -49 -29 -63 -3 -6 12 -7 20 -1 20 5 0 48 29 96 65 48 36 91 62 96 59 5 -3
9 -15 9 -27z m2855 17 c20 -16 19 -16 -4 -9 -20 6 -23 4 -18 -9 4 -11 3 -15
-4 -10 -8 4 -9 -1 -3 -17 4 -13 8 -37 9 -54 0 -27 -3 -30 -33 -32 -19 -1 -41
-8 -50 -16 -9 -8 -42 -23 -72 -33 -30 -10 -73 -32 -95 -48 -22 -17 -52 -39
-65 -49 -14 -10 -18 -15 -10 -12 28 12 -25 -27 -74 -53 -74 -41 -85 -48 -109
-68 -12 -11 -74 -58 -137 -106 -63 -47 -131 -101 -150 -118 -19 -17 -53 -46
-74 -63 -22 -18 -48 -40 -58 -50 -10 -10 -56 -50 -101 -89 -140 -122 -550
-538 -702 -712 -33 -38 -71 -81 -85 -96 -93 -100 -221 -242 -310 -345 -57 -66
-123 -140 -145 -165 -23 -25 -75 -81 -115 -125 -41 -44 -83 -89 -95 -100 -12
-11 -48 -51 -79 -89 -31 -38 -87 -103 -125 -145 -37 -42 -146 -164 -241 -271
-94 -107 -207 -233 -249 -280 -43 -47 -97 -107 -121 -135 -166 -194 -411 -442
-445 -451 -36 -9 -59 6 -63 40 -5 43 105 194 332 456 12 14 91 106 176 205 85
99 177 205 205 236 27 30 82 91 120 135 39 43 95 106 126 139 30 33 109 123
175 200 65 77 124 145 130 150 6 6 55 62 110 125 54 63 101 117 104 120 3 3
71 79 150 170 80 90 172 194 205 230 33 36 92 101 130 145 39 43 148 164 243
267 103 113 170 193 166 200 -5 7 -3 8 5 4 14 -9 43 23 34 37 -3 5 1 7 9 5 18
-4 55 35 50 52 -3 9 1 11 12 7 9 -4 16 -2 16 2 0 16 -24 18 -38 4 -7 -7 -10
-18 -7 -24 4 -6 -3 -5 -14 3 -16 9 -18 14 -7 16 8 2 17 10 20 18 3 9 1 12 -4
9 -6 -3 -10 -1 -10 6 0 7 -11 10 -30 7 -26 -4 -29 -2 -28 19 2 20 7 23 25 18
13 -3 23 -1 23 5 0 5 -15 10 -34 10 -19 0 -38 4 -41 10 -4 6 1 7 12 3 16 -6
17 -5 3 12 -14 17 -13 18 8 13 12 -4 20 -2 16 3 -3 5 0 9 5 9 6 0 10 5 8 12
-3 15 27 22 61 13 25 -7 26 -8 7 -15 -12 -5 -14 -9 -5 -9 8 0 24 4 35 9 18 7
17 8 -9 15 l-29 8 29 13 c35 15 26 18 -12 4 -36 -14 -61 -6 -44 15 7 8 20 15
29 14 10 0 7 -4 -8 -10 -13 -5 -21 -12 -18 -15 3 -4 21 3 39 14 18 11 38 17
45 15 7 -2 20 1 30 7 16 10 16 11 -4 7 -12 -3 -37 -1 -55 4 l-33 9 35 -4 c19
-2 44 0 55 5 17 6 16 8 -10 9 l-30 2 30 14 c29 14 29 15 3 9 -24 -5 -26 -3
-25 30 1 37 6 42 25 23 9 -9 12 -9 12 0 0 7 -4 12 -10 12 -5 0 -10 5 -10 10 0
6 6 10 13 10 7 0 19 9 26 19 11 14 23 18 50 15 20 -2 27 -1 16 2 -36 10 -39
23 -10 36 22 10 29 10 33 0 2 -6 11 -12 20 -12 14 0 14 2 3 9 -11 7 -9 10 8
16 21 6 29 25 11 25 -5 0 -10 -4 -10 -10 0 -5 -8 -10 -17 -9 -11 0 -13 3 -5 6
6 2 9 9 6 15 -3 5 3 12 15 15 12 3 21 9 21 14 0 5 4 9 10 9 5 0 7 -7 4 -15 -7
-17 4 -19 25 -6 13 8 13 12 0 27 -13 15 -12 16 11 10 24 -7 24 -6 6 8 -19 15
-18 16 12 16 30 0 32 2 26 25 -5 21 -3 25 14 25 24 0 38 16 20 23 -7 3 1 6 19
6 17 1 35 5 38 11 8 13 34 -11 28 -27 -3 -6 -12 -9 -21 -7 -13 4 -12 2 2 -7
16 -9 21 -9 30 3 11 15 35 17 66 5 8 -3 28 -8 44 -12 23 -5 27 -8 15 -16 -20
-12 -42 -11 -33 2 4 8 0 9 -15 4 -12 -4 -21 -2 -21 4 0 6 -5 11 -11 11 -5 0
-7 -5 -3 -11 5 -9 -6 -10 -40 -7 -50 6 -58 2 -23 -12 20 -8 20 -9 -8 -9 -17
-1 -35 3 -40 8 -14 14 -44 18 -43 6 1 -25 118 -39 118 -14 0 12 54 11 66 -1
14 -14 156 -32 167 -21 5 5 -3 9 -19 9 -15 0 -33 7 -39 16 -7 9 -17 16 -24 16
-6 0 -11 7 -11 15 0 8 7 15 15 15 8 0 14 -4 13 -9 -2 -5 1 -9 6 -9 5 0 13 -6
18 -14 7 -10 11 -9 22 5 9 12 16 14 21 8 3 -6 1 -11 -4 -11 -17 0 -13 -17 5
-24 8 -3 25 -1 36 5 20 11 20 12 3 21 -14 8 -15 12 -4 19 20 12 52 11 43 -2
-3 -6 13 2 37 17 51 31 61 40 37 31 -10 -3 -20 -2 -23 3 -4 6 -1 10 4 10 6 0
11 7 11 15 0 9 9 15 23 15 12 0 29 4 37 9 8 6 18 7 23 4 14 -8 -14 -23 -48
-24 -17 -1 -23 -3 -12 -6 9 -2 15 -9 12 -14 -10 -15 12 -10 25 6 7 8 17 15 22
15 6 0 23 9 39 21 16 11 29 18 29 14 0 -3 4 -4 10 0 5 3 0 15 -11 26 -19 19
-22 20 -39 4 -10 -9 -25 -15 -32 -12 -8 4 -7 6 5 6 9 1 17 6 17 11 0 11 -34
15 -87 11 -18 -1 -33 1 -33 4 0 11 54 26 69 19 9 -4 25 -9 36 -10 74 -13 85
-16 80 -24 -3 -4 1 -10 7 -12 12 -4 34 4 155 58 38 17 95 18 111 2 6 -6 15 -8
19 -3 5 4 2 10 -6 13 -11 4 -11 6 0 13 18 11 21 11 44 -7z m-639 -9 c-4 -11 2
-15 27 -15 30 -1 31 -1 13 -15 -19 -14 -18 -15 10 -16 26 0 27 -1 8 -9 -12 -5
-25 -13 -29 -19 -3 -6 -19 -11 -35 -11 -15 0 -30 -6 -33 -12 -3 -10 -9 -10
-25 -1 -39 23 -71 -14 -40 -45 9 -9 5 -12 -20 -12 -18 0 -32 -4 -32 -10 0 -16
-70 -12 -86 5 -14 13 -14 15 0 15 8 0 18 -4 21 -10 10 -16 45 -12 45 6 0 14
-3 14 -15 4 -9 -7 -18 -10 -22 -6 -3 3 -1 6 5 6 20 0 13 20 -10 30 -23 9 -23
9 2 11 35 2 32 2 62 -5 22 -5 26 -3 22 9 -6 13 6 20 29 16 11 -2 8 17 -5 25
-17 11 21 23 50 17 17 -4 21 -2 16 11 -3 9 -1 16 5 16 6 0 11 7 11 15 0 8 7
15 16 15 10 0 14 -6 10 -15z m84 -5 c0 -5 -2 -10 -4 -10 -3 0 -8 5 -11 10 -3
6 -1 10 4 10 6 0 11 -4 11 -10z m195 -70 c3 -5 -1 -10 -10 -10 -9 0 -13 5 -10
10 3 6 8 10 10 10 2 0 7 -4 10 -10z m-1095 -50 c0 -10 -9 -24 -19 -29 -15 -9
-20 -7 -24 11 -8 27 -1 38 24 38 12 0 19 -7 19 -20z m922 -52 c-7 -7 -12 -8
-12 -2 0 6 3 14 7 17 3 4 9 5 12 2 2 -3 -1 -11 -7 -17z m-207 2 c11 -17 -5
-32 -21 -19 -7 6 -11 15 -8 20 7 12 21 11 29 -1z m-835 -20 c0 -5 -2 -10 -4
-10 -3 0 -8 5 -11 10 -3 6 -1 10 4 10 6 0 11 -4 11 -10z m-1236 -69 c-9 -10
-26 18 -18 30 5 9 9 8 14 -7 4 -10 6 -21 4 -23z m2081 19 c-3 -5 -10 -10 -16
-10 -5 0 -9 5 -9 10 0 6 7 10 16 10 8 0 12 -4 9 -10z m-1835 -95 c0 -21 -17
-27 -24 -9 -10 25 -7 34 9 28 8 -4 15 -12 15 -19z m-54 -42 c-11 -11 -17 4 -9
23 7 18 8 18 11 1 2 -10 1 -21 -2 -24z m2468 -85 c21 -30 20 -51 -4 -73 -11
-10 -20 -13 -20 -7 0 23 -26 12 -51 -20 -28 -38 -58 -97 -59 -115 0 -25 -88
-118 -221 -234 -36 -31 -71 -70 -79 -85 -19 -38 -42 -69 -55 -74 -18 -8 -45
-34 -45 -45 0 -5 -14 -18 -31 -28 -20 -11 -29 -22 -25 -32 3 -8 2 -15 -3 -15
-4 0 -13 -11 -19 -24 -6 -13 -32 -39 -59 -56 -44 -30 -183 -166 -183 -180 0
-11 -82 -92 -113 -110 -16 -10 -36 -16 -44 -13 -16 6 -43 -25 -36 -43 2 -6 -3
-14 -12 -18 -9 -3 -13 -2 -10 4 3 6 2 10 -3 10 -13 0 -23 -28 -12 -32 6 -2 5
-9 0 -18 -9 -13 -11 -13 -21 0 -8 12 -9 11 -5 -5 4 -15 -10 -36 -49 -79 -30
-33 -55 -64 -55 -70 0 -13 -209 -216 -223 -216 -5 0 -7 10 -4 21 5 17 -1 14
-23 -12 -16 -19 -29 -37 -30 -41 0 -5 -4 -8 -10 -8 -15 0 -12 26 5 40 16 14
20 30 7 30 -5 0 -17 -19 -28 -41 -10 -23 -33 -60 -50 -82 -18 -23 -30 -46 -27
-52 4 -5 2 -7 -2 -2 -5 4 -17 0 -27 -10 -10 -9 -18 -13 -18 -10 0 4 -8 -1 -18
-10 -12 -11 -15 -22 -10 -29 5 -7 3 -14 -7 -18 -9 -3 -13 -11 -10 -16 4 -6 3
-9 -2 -8 -9 3 -123 -110 -123 -122 0 -6 -89 -91 -150 -144 -8 -7 -49 -51 -90
-97 -79 -88 -121 -131 -289 -292 -60 -58 -100 -104 -97 -112 3 -8 -15 -31 -42
-54 -26 -23 -61 -55 -79 -71 -18 -18 -33 -25 -35 -18 -6 16 -151 -128 -153
-151 -1 -10 -14 -31 -29 -47 -167 -176 -259 -269 -267 -267 -5 2 -9 -3 -9 -10
0 -7 -25 -26 -55 -42 -30 -17 -55 -33 -55 -37 0 -4 -7 -5 -15 -2 -8 4 -15 14
-15 23 0 9 -5 22 -11 28 -8 8 -8 17 1 33 12 22 163 192 209 235 12 11 35 34
52 52 17 17 36 30 43 27 6 -2 23 14 36 37 57 94 106 148 595 648 105 107 357
361 560 565 204 204 384 389 400 410 17 22 50 58 74 80 24 23 66 63 92 90 43
43 46 49 28 53 -25 7 -22 46 4 51 15 3 17 -1 11 -22 -3 -14 -3 -26 1 -26 4 0
34 27 67 60 55 56 57 60 34 60 -14 0 -26 5 -26 10 0 7 13 9 33 5 24 -5 37 -2
46 9 12 14 10 15 -18 10 -21 -4 -31 -3 -31 5 0 7 -5 9 -11 5 -27 -17 -75 -12
-88 8 -12 19 -11 20 12 14 17 -4 29 0 38 11 12 15 11 16 -8 11 -13 -4 -23 -2
-23 3 0 5 -7 9 -15 9 -8 0 -15 9 -15 20 0 16 6 19 36 16 38 -4 98 -45 77 -53
-21 -8 -15 -22 7 -16 12 3 20 0 20 -6 0 -18 53 -9 57 9 4 13 3 13 -6 0 -9 -12
-11 -11 -11 8 0 17 -7 24 -30 29 -17 3 -33 9 -36 14 -3 5 3 6 12 2 11 -4 15
-3 11 4 -4 6 -2 13 5 15 7 3 2 7 -10 10 -12 4 -20 2 -16 -3 3 -5 2 -9 -3 -9
-16 0 -31 15 -36 35 -4 18 -5 18 -6 -3 -1 -20 -5 -22 -36 -19 -39 5 -48 10
-51 32 -1 9 6 15 18 15 14 0 18 5 14 15 -7 18 5 20 22 3 9 -9 12 -9 12 -1 0 7
-9 18 -20 26 -11 8 -17 17 -13 20 11 12 22 8 44 -14 19 -19 35 -22 133 -25
102 -3 113 -1 124 16 10 17 9 20 -5 21 -11 0 -13 3 -5 6 17 7 15 20 -7 42 -21
21 -68 40 -57 23 3 -6 -9 -15 -27 -21 -27 -9 -29 -9 -15 3 10 7 15 15 12 19
-3 3 4 8 15 12 12 3 19 11 16 16 -4 5 2 9 12 8 29 0 100 -17 81 -18 -10 0 -18
-5 -18 -10 0 -22 13 -41 28 -41 12 0 13 3 4 12 -17 17 -15 26 8 33 11 4 18 11
15 16 -4 5 4 9 16 9 20 0 21 4 15 40 -6 36 -4 40 14 40 12 0 20 7 20 18 0 10
3 13 8 6 4 -6 15 -10 25 -8 13 2 16 -2 13 -14 -4 -13 1 -17 22 -19 20 -1 29 3
29 13 0 10 -7 14 -18 11 -12 -3 -16 0 -12 9 3 8 10 11 16 7 6 -3 7 -1 3 5 -4
6 -13 9 -21 5 -18 -6 -20 8 -3 25 10 10 6 12 -19 10 -18 -1 -29 -7 -26 -13 2
-7 -6 -11 -19 -10 -15 1 -22 8 -21 19 0 11 -4 15 -12 12 -7 -2 -15 4 -18 15
-4 14 0 19 14 19 11 0 16 5 13 13 -3 8 2 20 11 27 10 8 15 9 15 1 0 -6 7 -11
15 -11 9 0 12 -6 8 -17 -5 -14 -3 -15 6 -7 10 9 10 16 0 32 -7 12 -10 25 -5
29 4 4 12 0 17 -10 6 -9 14 -17 20 -17 5 0 2 11 -7 25 -15 23 -15 25 0 25 19
0 21 16 4 23 -10 4 -10 6 -1 6 6 1 15 -3 18 -9 3 -5 11 -10 16 -10 6 0 7 5 4
10 -4 6 5 10 20 10 14 0 24 4 21 9 -9 14 16 20 37 9 16 -8 17 -7 5 11 -15 24
-4 39 15 22 8 -6 21 -9 29 -6 9 4 22 -1 31 -9 22 -22 24 -20 19 14 l-4 30 48
-4 c27 -2 54 -4 59 -6 18 -4 58 0 53 6 -6 6 -32 12 -57 13 -17 1 -9 12 11 15
7 1 19 6 27 10 11 7 13 5 8 -7 -3 -10 -5 -17 -2 -17 2 0 32 28 67 61 69 67 87
77 135 78 22 1 37 -6 47 -21z m-2989 -18 c-7 -12 10 -30 48 -49 15 -8 27 -20
27 -26 0 -6 11 -18 25 -25 14 -7 25 -17 25 -22 0 -5 5 -6 10 -3 6 3 10 -2 10
-12 0 -13 -8 -18 -30 -18 -18 0 -30 5 -30 13 0 8 -9 13 -22 11 -13 -1 -30 0
-38 3 -47 17 -102 28 -111 22 -11 -6 -49 23 -49 38 0 5 9 6 20 3 12 -4 20 -2
20 5 0 6 12 16 28 23 15 6 36 20 46 29 22 20 30 23 21 8z m2735 -55 c-7 -9
-15 -13 -17 -11 -7 7 7 26 19 26 6 0 6 -6 -2 -15z m-55 -5 c3 -5 1 -10 -4 -10
-6 0 -11 5 -11 10 0 6 2 10 4 10 3 0 8 -4 11 -10z m-30 -30 c-3 -5 -11 -10
-16 -10 -6 0 -7 5 -4 10 3 6 11 10 16 10 6 0 7 -4 4 -10z m-2920 -49 c28 -10
27 -10 -10 -4 -22 4 -68 7 -102 7 -34 1 -64 4 -68 7 -10 11 148 1 180 -10z
m-267 2 c-10 -2 -26 -2 -35 0 -10 3 -2 5 17 5 19 0 27 -2 18 -5z m95 -40 c-7
-2 -21 -2 -30 0 -10 3 -4 5 12 5 17 0 24 -2 18 -5z m234 -62 c-6 -17 -15 -31
-20 -31 -4 0 -3 8 2 18 11 21 3 65 -10 56 -5 -3 -6 2 -3 11 6 14 9 14 25 -4
15 -16 16 -24 6 -50z m73 -21 c8 -5 11 -10 5 -10 -5 0 -17 5 -25 10 -8 5 -10
10 -5 10 6 0 17 -5 25 -10z m96 -48 c-7 -6 -76 19 -76 28 0 5 18 1 40 -7 22
-9 38 -18 36 -21z m1784 -2 c0 -5 -5 -10 -11 -10 -5 0 -7 5 -4 10 3 6 8 10 11
10 2 0 4 -4 4 -10z m-110 -40 c-8 -5 -19 -10 -25 -10 -5 0 -3 5 5 10 8 5 20
10 25 10 6 0 3 -5 -5 -10z m-70 -10 c0 -5 -5 -10 -11 -10 -5 0 -7 5 -4 10 3 6
8 10 11 10 2 0 4 -4 4 -10z m1310 0 l25 -8 -25 -1 c-14 -1 -36 -4 -50 -6 -14
-3 -19 -3 -12 1 6 3 10 10 6 15 -6 11 21 10 56 -1z m-513 -22 c-3 -8 -6 -5 -6
6 -1 11 2 17 5 13 3 -3 4 -12 1 -19z m-717 -6 c24 -13 24 -13 -10 -7 -47 10
-74 24 -40 22 14 -1 36 -7 50 -15z m58 6 c-2 -6 -10 -13 -16 -14 -7 -1 -8 0
-2 3 5 2 8 9 4 14 -3 5 0 9 6 9 7 0 10 -5 8 -12z m1769 6 c-3 -3 -12 -4 -19
-1 -8 3 -5 6 6 6 11 1 17 -2 13 -5z m-1263 -25 c-3 -5 -9 -7 -14 -4 -5 3 -13
-3 -19 -12 -9 -16 -10 -16 -11 4 0 12 7 23 18 26 22 5 34 -2 26 -14z m666 -41
c0 -4 17 -5 38 -3 l37 5 -35 -9 c-20 -6 -41 -6 -51 0 -12 6 -19 5 -21 -3 -3
-8 -9 -8 -25 0 -17 10 -20 9 -19 -6 1 -11 -7 -18 -24 -20 -19 -2 -26 2 -27 17
-2 21 48 48 67 36 6 -3 10 -3 9 2 -4 21 3 23 26 6 13 -10 25 -21 25 -25z
m-635 22 c-3 -5 -1 -10 4 -10 6 0 11 5 11 12 0 6 2 9 5 6 4 -4 -23 -68 -29
-68 -2 0 1 62 3 68 1 1 4 2 7 2 3 0 2 -4 -1 -10z m-92 -16 c-3 -8 -12 -13 -20
-10 -8 3 -24 7 -36 7 -19 1 3 8 55 18 4 0 5 -6 1 -15z m22 -26 c-1 -16 -9 -24
-26 -26 -13 -2 -20 0 -16 4 5 5 -7 14 -25 21 l-33 13 43 -5 c25 -3 42 -1 42 5
0 5 4 10 8 10 5 0 8 -10 7 -22z m112 -20 c-3 -7 -5 -2 -5 12 0 14 2 19 5 13 2
-7 2 -19 0 -25z m658 16 c13 -5 14 -8 3 -15 -8 -6 -1 -9 22 -10 29 0 31 -2 15
-9 -12 -5 -14 -9 -6 -9 8 -1 11 -4 8 -7 -4 -4 -13 -2 -20 5 -8 6 -22 9 -31 5
-13 -5 -13 -9 7 -25 l22 -18 -25 -1 c-15 0 -32 6 -39 13 -10 10 -14 9 -22 -5
-6 -10 -17 -18 -24 -18 -8 0 -15 -4 -15 -10 0 -15 11 -12 32 7 14 12 23 14 40
6 22 -10 22 -10 -12 -41 -19 -18 -44 -32 -55 -32 -13 0 -16 -3 -8 -8 8 -5 -12
-30 -63 -77 -42 -39 -105 -98 -140 -133 -37 -36 -69 -60 -76 -56 -6 4 -8 3 -5
-3 3 -5 -50 -65 -118 -132 -69 -67 -125 -119 -125 -114 0 4 -7 -3 -16 -15 -8
-12 -20 -19 -26 -16 -7 5 -8 2 -3 -5 9 -15 -43 -73 -58 -64 -6 3 -7 1 -4 -4 4
-6 -27 -46 -68 -88 -58 -61 -78 -75 -88 -67 -10 9 -17 8 -27 -1 -10 -10 -12
-9 -7 5 3 10 1 20 -5 24 -7 4 -8 3 -4 -5 4 -6 0 -14 -8 -17 -9 -3 -14 -10 -11
-14 3 -5 -5 -6 -17 -2 -16 4 -19 2 -13 -8 6 -10 4 -12 -9 -7 -10 4 -24 1 -32
-8 -14 -13 -14 -15 0 -15 8 0 17 -8 20 -18 4 -10 13 -19 21 -19 11 0 12 4 5
11 -18 18 -11 34 18 41 15 3 34 13 44 21 11 10 18 12 23 5 9 -16 -5 -33 -22
-27 -11 4 -13 2 -9 -9 4 -13 2 -14 -14 -5 -11 6 -20 7 -20 1 0 -5 7 -12 16
-15 8 -3 12 -10 9 -16 -4 -6 -11 -7 -17 -4 -6 4 -8 2 -5 -3 7 -12 -7 -26 -37
-37 -16 -5 -17 -4 -6 9 8 10 9 15 1 15 -6 0 -11 -3 -12 -7 0 -5 -2 -16 -4 -26
-2 -10 1 -15 8 -11 7 4 0 -6 -15 -22 -26 -27 -29 -27 -45 -11 -9 9 -13 20 -9
24 4 4 11 2 15 -6 7 -10 10 -9 14 3 4 11 1 16 -11 17 -14 0 -14 2 -2 7 19 9
20 57 1 74 -10 9 -12 10 -7 1 4 -7 3 -13 -1 -13 -15 0 -33 23 -33 42 0 20 30
24 47 7 8 -8 17 -7 34 5 13 9 31 16 41 16 31 0 20 29 -14 39 -18 5 -25 10 -15
10 10 1 20 8 23 16 4 8 10 12 15 9 5 -3 9 2 9 10 0 9 5 17 10 17 6 1 16 2 23
3 6 0 12 6 13 11 0 6 4 18 9 28 5 13 11 15 20 7 21 -18 24 3 4 24 -11 11 -19
14 -19 8 0 -6 -8 -10 -19 -9 -15 1 -17 4 -8 18 6 10 20 21 32 24 12 4 15 8 8
12 -18 7 -16 23 2 23 8 0 15 5 15 11 0 12 68 79 81 79 4 0 11 9 14 20 3 11 14
20 23 20 15 0 15 2 2 11 -12 9 -11 10 8 6 24 -6 28 3 10 21 -9 9 -9 12 3 12 8
0 27 14 44 31 16 18 31 26 33 20 2 -6 8 -8 14 -5 6 4 5 10 -3 15 -11 7 -8 15
14 34 15 13 27 28 27 33 0 12 24 22 53 22 18 0 19 2 7 10 -19 12 -4 40 28 55
12 5 22 14 22 19 0 4 20 28 45 52 25 23 45 48 45 54 0 6 5 8 10 5 6 -3 13 1
16 9 4 9 18 16 33 16 18 0 28 5 28 15 0 11 -7 14 -21 10 -21 -6 -21 -6 -1 7
20 12 25 14 46 17 5 0 7 6 3 13 -5 8 -2 9 10 5 10 -4 23 -7 29 -8 7 0 3 -4 -8
-9 -13 -6 -15 -9 -5 -9 8 0 21 3 29 8 11 7 9 10 -8 16 -25 8 -27 20 -5 29 10
4 14 14 11 26 -3 13 0 20 9 20 8 0 11 -6 8 -15 -5 -13 8 -15 91 -14 85 2 95 3
75 14 -22 12 -23 13 -4 18 30 7 41 8 59 1z m370 -14 c-3 -5 -11 -10 -16 -10
-6 0 -7 5 -4 10 3 6 11 10 16 10 6 0 7 -4 4 -10z m-1233 -22 c-14 -14 -16 -32
-2 -23 7 4 7 -2 0 -19 -12 -34 0 -39 45 -20 20 8 39 13 42 10 3 -3 -6 -8 -21
-12 -14 -3 -24 -10 -21 -14 5 -7 -32 -23 -47 -21 -5 1 -8 -3 -8 -8 0 -5 -18
-12 -41 -16 -31 -5 -45 -3 -57 9 -15 15 -15 16 0 16 9 0 20 -4 23 -10 10 -15
28 -12 22 4 -3 8 -1 17 6 19 7 2 1 2 -13 0 -22 -3 -25 0 -25 28 0 28 2 30 28
25 24 -5 27 -3 22 13 -6 19 6 27 45 30 11 1 11 -2 2 -11z m1192 -13 c-4 -9
-18 -15 -38 -14 l-31 0 35 13 c19 8 36 14 37 15 1 0 0 -6 -3 -14z m88 -10 c3
-13 1 -22 -3 -19 -5 3 -9 12 -9 20 0 11 -6 14 -22 9 -18 -5 -20 -4 -8 4 24 17
37 13 42 -14z m-1183 -76 c-8 -16 -14 -18 -22 -10 -9 9 -8 14 3 21 24 16 31
11 19 -11z m-24 -29 c4 -6 -10 -10 -37 -9 -40 1 -41 2 -13 9 43 11 43 11 50 0z
m-2145 -20 c0 -11 -4 -20 -9 -20 -5 0 -7 9 -4 20 3 11 7 20 9 20 2 0 4 -9 4
-20z m-137 -50 c3 -11 2 -20 -3 -20 -8 0 -20 24 -20 41 0 17 17 1 23 -21z
m3140 -37 c-7 -2 -19 -2 -25 0 -7 3 -2 5 12 5 14 0 19 -2 13 -5z m-2975 -133
c0 -25 -2 -37 -5 -27 -2 9 -8 17 -11 17 -6 0 -7 126 -2 140 5 11 18 -88 18
-130z m2012 90 c0 -5 -5 -10 -11 -10 -5 0 -7 5 -4 10 3 6 8 10 11 10 2 0 4 -4
4 -10z m-290 -40 c0 -5 -2 -10 -4 -10 -3 0 -8 5 -11 10 -3 6 -1 10 4 10 6 0
11 -4 11 -10z m190 -60 c8 -5 11 -12 7 -16 -4 -4 -15 0 -24 9 -18 18 -8 23 17
7z m-1954 -17 c16 -21 18 -37 4 -28 -13 8 -33 45 -24 45 4 0 13 -8 20 -17z
m-281 -44 c11 -11 -35 -3 -70 13 -13 5 -7 6 20 2 22 -3 45 -10 50 -15z m148 0
c12 -11 22 -26 22 -32 1 -7 6 -11 13 -10 6 2 9 -4 6 -12 -4 -8 -13 -15 -21
-15 -8 0 -11 5 -8 10 3 6 1 10 -5 10 -6 0 -8 5 -5 11 4 5 -5 21 -20 35 -14 13
-21 24 -15 24 6 0 21 -9 33 -21z m98 -6 c13 -15 12 -15 -8 -4 -19 10 -23 9
-23 -3 0 -8 6 -17 13 -19 9 -4 9 -6 0 -6 -16 -1 -26 17 -19 34 7 20 20 19 37
-2z m-137 -38 c4 -13 2 -14 -14 -5 -23 13 -26 20 -6 20 8 0 16 -7 20 -15z
m2010 -12 c-20 -15 -34 -17 -34 -5 0 16 23 30 38 25 13 -5 12 -8 -4 -20z m114
-391 c18 -12 -34 -35 -60 -26 -19 6 -19 7 3 19 29 16 40 17 57 7z m-2468 -62
c-8 -5 -17 -7 -19 -4 -3 3 1 9 9 14 8 5 17 7 19 4 3 -3 -1 -9 -9 -14z m2980
-15 c0 -8 -4 -15 -10 -15 -5 0 -7 7 -4 15 4 8 8 15 10 15 2 0 4 -7 4 -15z m25
-25 c3 -5 1 -10 -4 -10 -6 0 -11 5 -11 10 0 6 2 10 4 10 3 0 8 -4 11 -10z
m-305 -97 c0 -13 -3 -14 -12 -5 -8 8 -17 8 -30 1 -11 -6 -24 -8 -31 -6 -14 5
29 25 56 26 10 1 17 -6 17 -16z m-34 -28 c-8 -8 -21 -15 -28 -15 -8 1 -6 6 6
15 26 20 42 19 22 0z m212 -40 c-13 -19 -27 -35 -32 -35 -6 0 -5 5 2 12 15 15
16 31 1 22 -7 -4 -10 -1 -7 7 3 8 12 13 21 11 8 -1 18 2 22 8 3 5 8 10 11 10
2 0 -6 -16 -18 -35z m-194 -20 c-4 -8 -12 -15 -20 -15 -17 0 -18 17 -1 23 22
9 27 7 21 -8z m-340 -4 c3 -5 -1 -14 -9 -21 -12 -10 -21 -10 -38 -1 l-22 11
23 -6 c16 -4 22 -1 22 10 0 17 15 22 24 7z m471 0 c-3 -5 -1 -12 5 -16 5 -3
10 -11 10 -18 0 -6 -6 -2 -14 8 -13 18 -13 35 0 35 3 0 3 -4 -1 -9z m-199 -16
c9 -8 11 -15 6 -15 -5 0 -15 7 -22 15 -7 8 -9 15 -6 15 4 0 14 -7 22 -15z
m159 -5 c3 -5 2 -10 -4 -10 -5 0 -13 5 -16 10 -3 6 -2 10 4 10 5 0 13 -4 16
-10z m-475 -42 c0 -4 -9 1 -20 12 -11 11 -20 23 -20 27 0 3 9 -2 20 -12 11
-10 20 -22 20 -27z m440 13 c0 -10 -7 -18 -15 -18 -8 0 -15 4 -15 9 0 4 5 8
11 8 6 0 8 7 5 16 -3 8 -2 12 4 9 6 -3 10 -14 10 -24z m45 -1 c-3 -5 -1 -10 6
-10 7 0 4 -6 -6 -14 -22 -16 -35 -12 -35 11 0 13 3 13 15 3 13 -11 14 -10 9 4
-3 9 -1 16 6 16 6 0 8 -4 5 -10z m-675 -14 c-4 -4 -16 -4 -26 2 -16 9 -14 10
8 9 15 -1 23 -6 18 -11z m440 4 c0 -5 -2 -10 -4 -10 -3 0 -8 5 -11 10 -3 6 -1
10 4 10 6 0 11 -4 11 -10z m-280 -33 c0 -4 -6 -2 -14 5 -8 7 -12 17 -9 22 5 8
23 -12 23 -27z m-123 -3 c-3 -3 -12 -4 -19 -1 -8 3 -5 6 6 6 11 1 17 -2 13 -5z
m431 -16 c-3 -15 -19 -28 -33 -28 -5 0 -3 5 5 10 13 9 13 10 0 11 -10 0 -8 3
5 9 11 5 21 9 23 9 1 1 1 -5 0 -11z m-58 -2 c0 -2 -9 -6 -20 -9 -11 -3 -18 -1
-14 4 5 9 34 13 34 5z m-375 -27 l20 -8 -20 0 c-11 0 -36 7 -55 15 l-35 14 35
-6 c19 -4 44 -10 55 -15z m460 1 c3 -5 -1 -10 -10 -10 -9 0 -13 5 -10 10 3 6
8 10 10 10 2 0 7 -4 10 -10z m-392 -6 c13 -13 -7 -34 -32 -33 -17 1 -20 3 -8
6 9 2 17 11 17 19 0 14 12 19 23 8z m327 -10 c0 -2 -7 -4 -15 -4 -8 0 -15 4
-15 10 0 5 7 7 15 4 8 -4 15 -8 15 -10z m-384 -72 c-13 -12 -35 -10 -40 5 -3
8 -1 11 4 8 6 -3 13 1 17 10 6 16 7 16 15 0 6 -9 7 -19 4 -23z m-101 -42 c3
-6 -1 -7 -9 -4 -18 7 -21 14 -7 14 6 0 13 -4 16 -10z m45 -4 c0 -2 -7 -7 -16
-10 -8 -3 -12 -2 -9 4 6 10 25 14 25 6z m-85 -56 c3 -5 1 -10 -4 -10 -6 0 -11
5 -11 10 0 6 2 10 4 10 3 0 8 -4 11 -10z m265 -10 c0 -5 -4 -10 -10 -10 -5 0
-10 5 -10 10 0 6 5 10 10 10 6 0 10 -4 10 -10z m586 -5 c13 -13 13 -15 1 -15
-8 0 -17 7 -21 15 -3 8 -3 15 0 15 3 0 12 -7 20 -15z m-849 -11 c-3 -3 -12 -4
-19 -1 -8 3 -5 6 6 6 11 1 17 -2 13 -5z m3 -20 c0 -1 -19 -2 -42 -2 -29 0 -37
3 -24 8 18 6 66 2 66 -6z m227 10 c-3 -3 -12 -4 -19 -1 -8 3 -5 6 6 6 11 1 17
-2 13 -5z m1039 -29 c-3 -9 0 -15 10 -15 8 0 12 -4 9 -10 -3 -5 -1 -10 4 -10
6 0 11 -4 11 -10 0 -5 -6 -10 -14 -10 -8 0 -16 -5 -18 -10 -2 -6 -11 -1 -20
10 -10 11 -13 20 -7 20 8 0 7 5 -2 16 -10 13 -10 17 2 25 21 13 32 11 25 -6z
m-939 -1 c-3 -3 -12 -4 -19 -1 -8 3 -5 6 6 6 11 1 17 -2 13 -5z m-2155 -36
c-7 -7 -12 -19 -12 -28 0 -9 -8 -25 -18 -36 -10 -10 -19 -22 -20 -27 -3 -17
-19 -39 -28 -37 -4 2 -13 -6 -19 -16 -5 -10 -27 -36 -47 -58 -21 -22 -38 -43
-38 -48 0 -4 -6 -5 -13 -2 -8 3 -26 -10 -41 -31 -15 -19 -31 -35 -37 -35 -5 0
-26 -18 -46 -41 -20 -22 -49 -47 -64 -54 -23 -13 -28 -12 -42 3 -30 33 -10 70
102 181 118 117 180 174 166 152 -5 -8 10 0 33 18 22 18 43 40 47 49 5 13 8
12 25 -3 18 -16 25 -14 21 8 0 4 6 7 14 7 8 0 15 5 15 12 0 6 3 8 7 5 4 -4 1
-13 -5 -19z m2203 12 c17 -4 23 -8 15 -9 -13 -1 -13 -2 0 -11 23 -15 -4 -12
-47 4 -21 8 -47 17 -58 19 -11 3 -2 5 20 5 22 0 54 -4 70 -8z m365 6 c0 -3 -4
-8 -10 -11 -5 -3 -10 -1 -10 4 0 6 5 11 10 11 6 0 10 -2 10 -4z m-514 -21 c24
-18 20 -18 -36 -1 -41 13 -42 15 -14 15 16 1 39 -6 50 -14z m64 -10 c0 -8 -9
-15 -21 -15 -11 0 -17 5 -14 10 4 6 11 8 16 5 5 -4 9 -1 9 4 0 6 2 11 5 11 3
0 5 -7 5 -15z m30 -15 c6 10 12 11 22 3 7 -6 22 -13 33 -16 11 -2 -7 -5 -40
-5 -33 0 -54 2 -47 5 6 2 13 14 13 26 2 20 2 20 6 -2 4 -18 7 -21 13 -11z
m-140 10 c0 -5 7 -6 17 -3 11 5 14 3 8 -6 -5 -10 -2 -11 12 -7 11 4 28 3 38 0
16 -7 16 -8 0 -17 -10 -5 -20 -5 -24 -1 -7 10 -30 15 -79 17 -32 1 -32 1 -10
14 28 15 38 16 38 3z m1053 -7 c-10 -3 -10 -10 -2 -25 10 -18 9 -20 -5 -15 -9
4 -16 1 -16 -6 0 -8 -3 -8 -9 2 -5 7 -14 10 -20 7 -17 -11 -13 15 5 28 8 7 25
12 37 13 12 0 16 -1 10 -4z m-397 -25 c-12 -7 -21 -7 -28 0 -6 6 0 10 18 10
23 0 24 -2 10 -10z m-625 -8 c5 0 9 -4 9 -10 0 -5 -9 -10 -21 -10 -11 0 -18 4
-15 9 4 5 3 11 -1 14 -5 2 -2 2 5 0 8 -1 18 -3 23 -3z m64 -10 c-11 -5 -27 -9
-35 -9 -9 0 -8 4 5 9 11 5 27 9 35 9 9 0 8 -4 -5 -9z m29 -14 c-3 -9 -13 -16
-22 -16 -13 0 -12 3 4 19 22 21 27 21 18 -3z m37 11 c-1 -12 -15 -9 -19 4 -3
6 1 10 8 8 6 -3 11 -8 11 -12z m-251 -91 c0 -9 -30 -14 -35 -6 -4 6 3 10 14
10 12 0 21 -2 21 -4z m110 -16 c0 -5 -5 -10 -11 -10 -5 0 -7 5 -4 10 3 6 8 10
11 10 2 0 4 -4 4 -10z m450 0 c0 -5 -5 -10 -11 -10 -5 0 -7 5 -4 10 3 6 8 10
11 10 2 0 4 -4 4 -10z m-497 -17 c15 -3 27 -9 27 -14 0 -9 -51 4 -77 21 -17
11 -17 11 2 5 11 -3 32 -9 48 -12z m557 7 c14 -4 19 -8 13 -9 -18 -1 -16 -21
2 -21 8 0 16 -8 16 -17 1 -17 2 -17 6 0 2 9 12 17 21 16 11 0 12 -2 5 -6 -7
-2 -13 -10 -13 -18 0 -23 -23 -33 -50 -23 l-25 10 23 9 c33 13 27 19 -13 12
-39 -6 -51 15 -14 24 21 6 21 6 -2 19 -26 15 -9 17 31 4z m-87 -17 c-13 -5 -6
-33 8 -33 5 0 8 3 8 8 -4 21 3 32 17 32 14 0 14 -3 4 -15 -10 -13 -10 -19 5
-35 10 -11 13 -20 7 -20 -7 0 -12 5 -12 11 0 6 -7 9 -15 6 -8 -4 -17 -2 -21 4
-3 5 -14 7 -25 4 -12 -4 -19 -2 -19 6 0 19 31 49 43 42 8 -5 7 -8 0 -10z m481
-4 c-8 -14 -41 -11 -47 4 -4 10 3 12 24 9 16 -2 26 -8 23 -13z m-1005 -8 c13
-12 18 -22 11 -26 -5 -3 -10 -2 -10 4 0 6 -12 17 -27 25 -17 9 -22 15 -12 16
9 0 26 -9 38 -19z m481 9 c0 -5 -4 -10 -10 -10 -5 0 -10 5 -10 10 0 6 5 10 10
10 6 0 10 -4 10 -10z m-359 -18 c-7 -2 -18 1 -23 6 -8 8 -4 9 13 5 13 -4 18
-8 10 -11z m849 -16 c-6 -6 -10 -15 -10 -20 0 -6 5 -3 11 7 5 9 19 17 29 17
11 0 20 5 20 10 0 6 6 5 14 -2 12 -11 11 -14 -3 -20 -9 -4 -11 -7 -5 -7 6 -1
11 -7 11 -15 0 -11 -6 -12 -25 -5 -14 5 -32 7 -42 4 -9 -3 -28 -1 -41 3 l-24
9 24 8 c18 5 21 9 10 16 -11 7 -11 9 -1 9 7 0 10 5 7 11 -4 6 2 5 14 -3 13 -8
17 -16 11 -22z m-1008 2 c-9 -9 -15 -9 -24 0 -9 9 -7 12 12 12 19 0 21 -3 12
-12z m502 3 c4 -5 -3 -7 -14 -4 -23 6 -26 13 -6 13 8 0 17 -4 20 -9z m261 -1
c-3 -5 -12 -7 -20 -3 -21 7 -19 13 6 13 11 0 18 -4 14 -10z m-40 -20 c3 -5 1
-10 -4 -10 -6 0 -11 5 -11 10 0 6 2 10 4 10 3 0 8 -4 11 -10z m-622 -17 c-7
-2 -19 -2 -25 0 -7 3 -2 5 12 5 14 0 19 -2 13 -5z m312 -3 c8 -13 -5 -13 -25
0 -13 8 -13 10 2 10 9 0 20 -4 23 -10z m138 -31 c-12 -12 -26 -18 -32 -15 -18
11 -13 26 8 26 11 0 23 5 26 11 4 6 10 8 13 4 3 -3 -4 -15 -15 -26z m62 13
c-3 -3 -11 0 -18 7 -9 10 -8 11 6 5 10 -3 15 -9 12 -12z m-558 2 c-3 -3 -12
-4 -19 -1 -8 3 -5 6 6 6 11 1 17 -2 13 -5z m366 -9 c15 -1 27 2 27 6 0 4 11 7
25 7 14 0 25 -4 25 -9 0 -5 -9 -9 -21 -9 -11 0 -17 -5 -14 -10 4 -6 10 -8 15
-5 5 3 25 -2 45 -12 23 -11 39 -14 43 -7 4 5 21 10 37 11 25 1 26 0 10 -7 -18
-7 -17 -8 10 -13 17 -2 11 -3 -12 -1 -48 4 -58 -10 -15 -22 l27 -7 -30 -7
c-18 -4 -45 -1 -67 8 -20 7 -45 12 -55 9 -14 -4 -13 -5 5 -6 13 0 20 -5 17
-11 -3 -6 1 -7 9 -4 9 3 16 1 16 -6 0 -6 5 -8 11 -5 6 4 17 -1 25 -11 9 -11
13 -13 9 -6 -7 14 4 16 23 3 25 -16 -27 -20 -63 -5 -39 16 -48 17 -41 6 2 -4
-13 -6 -35 -4 -21 2 -36 8 -33 13 6 11 6 11 -33 0 -23 -7 -30 -6 -27 2 2 7 -8
13 -28 14 -24 2 -29 0 -18 -7 13 -8 12 -10 -2 -10 -10 0 -18 4 -18 9 0 17 30
33 52 26 16 -4 19 -4 9 3 -11 8 -10 11 5 15 16 4 16 5 -3 6 -12 0 -25 6 -28
11 -7 12 24 6 89 -17 22 -7 36 -10 32 -6 -4 5 -28 16 -54 25 -26 9 -39 17 -29
17 9 1 17 9 17 19 0 9 4 13 8 7 4 -5 19 -10 35 -10z m567 -75 c0 -5 -4 -10 -9
-10 -6 0 -13 5 -16 10 -3 6 1 10 9 10 9 0 16 -4 16 -10z m-683 -56 c-3 -3 -12
-4 -19 -1 -8 3 -5 6 6 6 11 1 17 -2 13 -5z m148 -4 l20 -9 -20 -1 -20 -1 20
-9 c12 -5 14 -9 6 -9 -8 -1 -23 6 -33 16 -10 9 -18 11 -18 5 0 -6 -12 -12 -26
-14 -26 -3 -26 -3 -7 -25 11 -12 31 -25 46 -28 15 -4 27 -12 27 -17 0 -6 -8
-7 -17 -3 -31 13 -58 12 -75 -3 -18 -15 -58 -8 -58 10 0 6 12 8 30 5 47 -10
35 10 -20 34 -54 23 -70 45 -20 28 16 -6 35 -9 42 -6 8 3 5 6 -6 6 -15 1 -16
4 -6 16 14 17 101 20 135 5z m92 -18 c9 -15 8 -18 -6 -17 -25 3 -68 24 -50 24
8 1 20 -4 27 -11 7 -7 12 -8 12 -2 0 6 -6 16 -12 23 -11 10 -10 11 2 6 9 -3
21 -14 27 -23z m287 -22 c-6 -6 -10 -2 -11 12 -2 16 1 18 10 9 7 -7 8 -14 1
-21z m-419 1 c3 -5 19 -9 35 -9 36 1 54 -11 19 -13 -13 -1 -31 0 -39 1 -19 2
-49 30 -33 30 7 0 14 -4 18 -9z m-132 -18 c-7 -2 -19 -2 -25 0 -7 3 -2 5 12 5
14 0 19 -2 13 -5z m210 -40 c-7 -2 -19 -2 -25 0 -7 3 -2 5 12 5 14 0 19 -2 13
-5z m-83 -13 c8 -5 11 -10 5 -10 -5 0 -17 5 -25 10 -8 5 -10 10 -5 10 6 0 17
-5 25 -10z m470 -16 c0 -2 -9 -4 -20 -4 -11 0 -20 4 -20 9 0 5 9 7 20 4 11 -3
20 -7 20 -9z m-563 -18 c-1 -6 9 -11 22 -11 14 0 26 -6 29 -14 3 -10 -2 -11
-19 -6 -41 13 -84 34 -71 35 7 0 11 4 8 9 -4 5 3 7 14 4 10 -3 18 -10 17 -17z
m453 20 c0 -3 -4 -8 -10 -11 -5 -3 -10 -1 -10 4 0 6 5 11 10 11 6 0 10 -2 10
-4z m585 -16 c3 -5 -1 -10 -10 -10 -9 0 -13 5 -10 10 3 6 8 10 10 10 2 0 7 -4
10 -10z m-565 -10 c0 -5 -4 -10 -10 -10 -5 0 -10 5 -10 10 0 6 5 10 10 10 6 0
10 -4 10 -10z m57 -5 c0 -8 -4 -15 -9 -15 -4 0 -8 7 -8 15 0 8 4 15 8 15 5 0
9 -7 9 -15z m148 -5 c-3 -5 -11 -10 -16 -10 -6 0 -7 5 -4 10 3 6 11 10 16 10
6 0 7 -4 4 -10z m-737 -35 c-3 -3 -9 2 -12 12 -6 14 -5 15 5 6 7 -7 10 -15 7
-18z m477 15 c3 -6 -4 -10 -17 -10 -18 0 -20 2 -8 10 19 12 18 12 25 0z m338
3 c-7 -2 -19 -2 -25 0 -7 3 -2 5 12 5 14 0 19 -2 13 -5z m-53 -47 c0 -3 -4 -8
-10 -11 -5 -3 -10 -1 -10 4 0 6 5 11 10 11 6 0 10 -2 10 -4z m295 -6 c3 -6 -1
-7 -9 -4 -18 7 -21 14 -7 14 6 0 13 -4 16 -10z m-650 -31 c-10 -15 -25 -10
-19 6 4 8 10 12 15 9 5 -3 7 -10 4 -15z m-48 5 c-3 -3 -12 -4 -19 -1 -8 3 -5
6 6 6 11 1 17 -2 13 -5z m110 0 c-3 -3 -12 -4 -19 -1 -8 3 -5 6 6 6 11 1 17
-2 13 -5z m5 -12 c20 6 45 8 55 4 17 -7 17 -8 0 -17 -9 -6 -22 -7 -27 -4 -6 3
-10 1 -10 -4 0 -6 -7 -11 -16 -11 -9 0 -12 5 -8 12 5 8 2 9 -9 5 -22 -8 -49 2
-41 15 4 7 9 6 13 -1 5 -7 17 -7 43 1z m-122 -32 c0 -5 -2 -10 -4 -10 -3 0 -8
5 -11 10 -3 6 -1 10 4 10 6 0 11 -4 11 -10z m85 -20 c-3 -6 4 -14 17 -19 l23
-10 -22 0 c-36 -1 -27 -18 15 -28 37 -9 44 -30 7 -25 -20 3 -20 3 0 -13 19
-16 19 -16 -9 -10 -19 4 -32 2 -37 -7 -7 -10 -9 -10 -9 -1 0 8 -11 11 -32 8
-18 -3 -26 -3 -18 1 8 3 22 8 30 11 8 4 19 5 24 4 16 -4 -17 31 -39 40 -16 8
-14 8 8 4 19 -4 26 -2 22 5 -3 5 0 10 7 10 7 0 5 5 -6 11 -15 9 -16 13 -5 20
19 12 32 11 24 -1z m655 1 c0 -5 -9 -11 -20 -14 -11 -3 -20 -1 -20 3 0 5 8 11
18 13 9 3 18 5 20 6 1 0 2 -3 2 -8z m-555 -11 c3 -5 -1 -10 -10 -10 -9 0 -13
5 -10 10 3 6 8 10 10 10 2 0 7 -4 10 -10z m-148 -16 c-3 -3 -12 -4 -19 -1 -8
3 -5 6 6 6 11 1 17 -2 13 -5z m-84 -35 c-11 -5 -13 -8 -4 -8 8 -1 12 -3 9 -6
-3 -3 -16 -1 -29 4 -17 7 -19 10 -6 10 9 1 17 8 17 17 0 14 2 14 16 3 14 -12
14 -14 -3 -20z m60 -23 c-16 -9 -33 7 -33 32 0 9 7 8 24 -5 20 -15 22 -19 9
-27z m267 -18 c0 -5 -9 -8 -20 -8 -19 0 -44 32 -33 43 6 7 52 -24 53 -35z
m565 32 c3 -5 -1 -10 -10 -10 -9 0 -13 5 -10 10 3 6 8 10 10 10 2 0 7 -4 10
-10z m-842 -53 c32 -22 35 -43 7 -50 -11 -3 -20 -10 -20 -15 0 -6 10 -8 23 -5
12 4 18 2 14 -3 -5 -5 -26 -9 -47 -9 -21 0 -37 1 -35 4 8 7 -29 30 -47 31 -10
0 -18 5 -18 11 0 6 9 9 20 6 27 -7 25 -1 -7 28 -17 15 -22 24 -14 25 8 0 20
-8 28 -17 8 -10 12 -12 8 -5 -3 6 0 12 7 13 7 0 3 5 -9 11 -13 6 -23 15 -23
19 0 10 78 -20 113 -44z m328 15 c-7 -2 -18 1 -23 6 -8 8 -4 9 13 5 13 -4 18
-8 10 -11z m-121 -2 c-8 -5 -19 -10 -25 -10 -5 0 -3 5 5 10 8 5 20 10 25 10 6
0 3 -5 -5 -10z m771 -5 c1 -5 4 -14 9 -20 12 -15 9 -66 -4 -62 -6 2 -10 18 -8
34 2 20 -2 32 -13 36 -8 4 -15 11 -15 17 0 14 31 9 31 -5z m-1821 -15 c0 -5
-5 -10 -11 -10 -5 0 -7 5 -4 10 3 6 8 10 11 10 2 0 4 -4 4 -10z m937 -2 c-15
-5 -25 -14 -21 -19 3 -5 0 -9 -5 -9 -6 0 -11 4 -11 10 0 12 30 30 50 29 8 0 3
-5 -13 -11z m563 2 c0 -5 -5 -10 -11 -10 -5 0 -7 5 -4 10 3 6 8 10 11 10 2 0
4 -4 4 -10z m165 -28 c-2 -2 -13 1 -24 8 -12 6 -27 8 -34 4 -8 -5 -8 -2 1 9
13 15 16 15 37 -1 13 -9 22 -18 20 -20z m209 23 c16 -12 17 -15 4 -15 -8 0
-21 7 -28 15 -16 19 -1 19 24 0z m-759 -5 c3 -6 -1 -7 -9 -4 -18 7 -21 14 -7
14 6 0 13 -4 16 -10z m-35 -10 c0 -5 -7 -10 -15 -10 -8 0 -15 5 -15 10 0 6 7
10 15 10 8 0 15 -4 15 -10z m505 -10 c3 -5 -1 -10 -9 -10 -9 0 -16 5 -16 10 0
6 4 10 9 10 6 0 13 -4 16 -10z m312 -27 c3 -6 12 -9 20 -6 10 4 14 2 10 -5 -4
-6 1 -13 10 -16 10 -3 -2 -3 -27 0 -33 4 -41 2 -30 -5 12 -9 12 -11 1 -11 -9
0 -4 -9 13 -25 25 -24 36 -42 16 -30 -5 3 -23 -1 -39 -10 -17 -8 -40 -15 -52
-15 -33 0 -18 -9 22 -14 19 -2 37 -4 42 -5 14 -2 7 -21 -8 -21 -22 0 -76 -29
-98 -51 -10 -11 -23 -19 -30 -19 -7 1 -1 10 13 22 17 14 21 22 12 25 -10 4 -9
8 3 17 15 11 15 13 1 25 -14 11 -16 11 -16 -3 0 -9 -5 -16 -11 -16 -6 0 -9 9
-6 20 6 24 -10 37 -43 35 -31 -2 -72 -23 -66 -34 4 -6 -17 -7 -44 -2 -3 1 2 6
10 11 13 8 12 10 -3 10 -11 0 -17 5 -14 13 2 6 12 10 22 9 17 -3 17 -2 4 14
-12 16 -12 17 3 11 10 -3 20 -2 23 3 4 6 19 10 35 10 16 0 32 5 35 10 3 6 12
10 18 10 7 0 6 -4 -3 -10 -12 -8 -12 -10 5 -10 15 0 17 -2 6 -9 -17 -11 -8
-27 18 -34 15 -3 17 0 13 17 -4 19 -3 20 9 4 8 -9 28 -20 44 -23 29 -6 29 -6
11 9 -11 9 -27 16 -35 16 -13 1 -12 3 3 15 19 14 19 15 0 21 -53 17 -56 20
-16 20 22 -1 47 -7 54 -13 6 -7 15 -13 19 -13 9 0 6 41 -5 58 -5 8 1 11 20 10
14 -2 28 -8 31 -15z m-806 -16 c-10 -9 -11 -8 -5 6 3 10 9 15 12 12 3 -3 0
-11 -7 -18z m-718 6 c3 -5 -1 -14 -8 -20 -11 -10 -13 -9 -12 7 1 20 12 26 20
13z m697 -1 c0 -5 -7 -9 -15 -9 -8 0 -12 4 -9 9 3 4 9 8 15 8 5 0 9 -4 9 -8z
m100 4 c0 -3 -4 -8 -10 -11 -5 -3 -10 -1 -10 4 0 6 5 11 10 11 6 0 10 -2 10
-4z m-432 -26 c7 -11 18 -17 27 -14 8 4 15 1 15 -6 0 -8 -8 -10 -22 -6 -13 3
-29 6 -35 6 -7 0 -13 9 -13 20 0 25 12 26 28 0z m292 16 c0 -3 -4 -8 -10 -11
-5 -3 -10 -1 -10 4 0 6 5 11 10 11 6 0 10 -2 10 -4z m515 -16 c3 -5 1 -10 -4
-10 -6 0 -11 5 -11 10 0 6 2 10 4 10 3 0 8 -4 11 -10z m115 1 c0 -12 -39 -21
-45 -11 -3 5 3 11 12 13 29 8 33 7 33 -2z m30 -5 c0 -3 -4 -8 -10 -11 -5 -3
-10 -1 -10 4 0 6 5 11 10 11 6 0 10 -2 10 -4z m-493 -22 c-3 -3 -12 -4 -19 -1
-8 3 -5 6 6 6 11 1 17 -2 13 -5z m85 -38 c9 -12 17 -28 17 -36 0 -10 -2 -11
-6 -2 -2 6 -9 12 -14 12 -6 0 -7 -4 -4 -10 3 -5 1 -10 -5 -10 -7 0 -10 7 -7
15 4 8 2 17 -4 21 -6 3 -13 -3 -16 -15 -3 -12 -9 -21 -15 -21 -10 0 10 42 24
51 6 4 -2 9 -16 13 -15 4 -24 11 -21 16 8 13 43 -5 67 -34z m862 10 c16 -4 23
-12 22 -23 -2 -14 -13 -19 -47 -20 -24 -1 -38 0 -30 4 11 4 11 7 0 14 -7 4
-10 12 -5 16 4 4 13 0 20 -10 7 -9 22 -17 32 -16 13 0 14 2 5 6 -11 5 -11 7 0
15 10 6 7 8 -10 6 -19 -2 -25 2 -27 22 -3 20 -2 22 6 9 5 -9 21 -20 34 -23z
m-743 4 c10 -6 19 -20 19 -30 0 -25 -8 -25 -27 -2 -8 9 -12 12 -9 5 4 -7 -1
-9 -16 -5 -12 3 -17 7 -10 10 6 2 12 10 12 18 0 17 5 17 31 4z m558 -3 c15
-19 2 -29 -15 -12 -8 7 -14 16 -14 19 0 11 17 6 29 -7z m-764 -6 c18 -2 17 -3
-5 -12 -17 -7 -26 -7 -28 0 -2 6 -8 11 -13 11 -6 0 -7 -5 -3 -11 4 -8 0 -8
-15 0 -11 7 -21 13 -21 14 0 3 55 2 85 -2z m-515 -16 c0 -8 -2 -15 -4 -15 -2
0 -6 7 -10 15 -3 8 -1 15 4 15 6 0 10 -7 10 -15z m35 -5 c3 -5 1 -10 -4 -10
-6 0 -11 5 -11 10 0 6 2 10 4 10 3 0 8 -4 11 -10z m39 -5 c-4 -8 -1 -15 6 -15
6 0 8 -5 4 -11 -10 -16 -28 6 -21 25 4 9 9 16 11 16 3 0 3 -7 0 -15z m291 -3
c-3 -3 -11 0 -18 7 -9 10 -8 11 6 5 10 -3 15 -9 12 -12z m1018 11 c-7 -2 -19
-2 -25 0 -7 3 -2 5 12 5 14 0 19 -2 13 -5z m-1848 -21 c-3 -3 -11 0 -18 7 -9
10 -8 11 6 5 10 -3 15 -9 12 -12z m1508 7 c-8 -8 -8 -20 -2 -36 10 -26 4 -47
-11 -38 -12 8 -60 -5 -60 -16 0 -5 8 -10 18 -10 9 -1 4 -5 -13 -9 -44 -11 -67
-11 -60 0 3 6 15 10 26 10 10 0 19 5 19 11 0 14 21 34 38 35 28 2 32 5 32 19
0 7 -8 19 -17 25 -17 11 -17 11 0 6 9 -3 17 -1 17 4 0 6 5 10 12 10 9 0 9 -3
1 -11z m-1083 -9 c0 -5 -4 -10 -10 -10 -5 0 -10 5 -10 10 0 6 5 10 10 10 6 0
10 -4 10 -10z m359 -13 c-13 -13 -27 -22 -32 -19 -8 4 33 41 47 42 5 0 -2 -10
-15 -23z m998 17 c-3 -3 -12 -4 -19 -1 -8 3 -5 6 6 6 11 1 17 -2 13 -5z
m-1268 -20 c2 -2 -11 -4 -30 -4 -19 0 -45 -3 -59 -6 l-25 -6 25 15 c21 12 75
13 89 1z m1236 6 c3 -5 1 -10 -4 -10 -6 0 -11 5 -11 10 0 6 2 10 4 10 3 0 8
-4 11 -10z m-1167 -46 c-3 -2 -19 1 -37 7 -18 6 -35 9 -38 5 -3 -3 8 -9 26
-12 37 -8 35 -13 -5 -20 -20 -3 -25 -1 -15 5 11 7 9 10 -8 16 -28 8 -22 15 21
24 22 5 37 3 47 -6 7 -8 11 -16 9 -19z m122 32 c0 -3 -4 -8 -10 -11 -5 -3 -10
-1 -10 4 0 6 5 11 10 11 6 0 10 -2 10 -4z m139 -18 c-6 -10 -12 -18 -15 -18
-3 0 -2 5 2 11 4 8 -1 9 -17 5 -13 -3 -18 -3 -10 0 10 5 10 8 1 14 -6 4 2 7
18 6 25 -1 29 -4 21 -18z m638 16 c-3 -3 -12 -4 -19 -1 -8 3 -5 6 6 6 11 1 17
-2 13 -5z m-1550 -10 c-3 -3 -12 -4 -19 -1 -8 3 -5 6 6 6 11 1 17 -2 13 -5z
m-112 -14 c3 -6 -1 -7 -9 -4 -18 7 -21 14 -7 14 6 0 13 -4 16 -10z m605 0 c13
-9 13 -10 0 -9 -8 1 -26 5 -40 9 l-25 8 25 1 c14 0 32 -4 40 -9z m210 -21 c0
-10 -4 -19 -8 -19 -15 0 -31 22 -25 36 7 18 33 5 33 -17z m650 21 c10 -6 11
-13 5 -19 -7 -7 -19 -3 -35 9 -23 18 -23 20 -5 20 11 0 27 -5 35 -10z m-795
-20 c-3 -5 2 -15 10 -23 24 -24 18 -29 -16 -12 -23 12 -28 19 -20 29 6 7 8 16
4 20 -4 4 0 4 10 0 9 -3 15 -10 12 -14z m489 5 c-4 -8 -10 -15 -15 -15 -5 0
-9 -5 -9 -11 0 -7 11 -9 28 -6 15 3 34 1 42 -4 11 -8 8 -8 -10 -3 -21 6 -23 5
-13 -8 10 -11 -1 -10 -48 5 -40 14 -56 23 -47 28 19 13 30 11 22 -3 -4 -7 3
-3 15 10 25 25 43 29 35 7z m194 -27 c10 -23 9 -26 -5 -21 -11 4 -14 2 -11 -8
3 -8 11 -13 18 -11 11 3 11 0 0 -13 -11 -14 -14 -12 -27 12 -8 15 -20 31 -26
36 -8 5 -5 7 8 5 16 -2 19 2 17 22 -4 29 9 18 26 -22z m217 32 c3 -5 -1 -10
-9 -10 -9 0 -16 5 -16 10 0 6 4 10 9 10 6 0 13 -4 16 -10z m-495 -7 c-8 -3
-24 -10 -35 -15 -20 -9 -20 -9 -1 6 11 9 27 16 35 15 14 0 14 -1 1 -6z m-523
-9 c-3 -3 -12 -4 -19 -1 -8 3 -5 6 6 6 11 1 17 -2 13 -5z m458 -4 c3 -5 1 -10
-4 -10 -6 0 -11 5 -11 10 0 6 2 10 4 10 3 0 8 -4 11 -10z m780 0 c3 -5 -1 -10
-10 -10 -9 0 -13 5 -10 10 3 6 8 10 10 10 2 0 7 -4 10 -10z m182 4 c-3 -3 -12
-4 -19 -1 -8 3 -5 6 6 6 11 1 17 -2 13 -5z m-287 -14 c-20 -13 -33 -13 -25 0
3 6 14 10 23 10 15 0 15 -2 2 -10z m-943 -6 c-3 -3 -12 -4 -19 -1 -8 3 -5 6 6
6 11 1 17 -2 13 -5z m164 -12 c-7 -2 -18 1 -23 6 -8 8 -4 9 13 5 13 -4 18 -8
10 -11z m515 4 c10 -8 16 -18 11 -22 -4 -4 -7 -2 -7 4 0 7 -9 12 -20 12 -11 0
-20 5 -20 10 0 14 13 12 36 -4z m474 4 c0 -5 -2 -10 -4 -10 -3 0 -8 5 -11 10
-3 6 -1 10 4 10 6 0 11 -4 11 -10z m-945 -10 c-3 -5 -2 -10 4 -10 6 0 8 -7 5
-15 -4 -8 -10 -12 -15 -9 -5 3 -7 10 -4 15 4 5 0 9 -7 9 -9 0 -9 3 2 10 19 12
23 12 15 0z m1022 4 c-3 -3 -12 -4 -19 -1 -8 3 -5 6 6 6 11 1 17 -2 13 -5z
m-419 -13 c11 -7 11 -9 0 -13 -7 -3 -19 1 -26 8 -10 11 -10 14 0 14 7 0 19 -4
26 -9z m172 -7 c0 -2 -7 -4 -15 -4 -8 0 -15 4 -15 10 0 5 7 7 15 4 8 -4 15 -8
15 -10z m195 6 c4 -6 -6 -10 -22 -9 -25 0 -26 1 -8 9 11 5 21 9 22 9 1 1 5 -3
8 -9z m-1305 -15 c0 -1 -9 -5 -20 -8 -12 -3 -20 0 -20 8 0 8 8 11 20 8 11 -3
20 -7 20 -8z m229 -11 c14 -12 -19 -1 -35 12 -18 14 -18 14 6 3 14 -6 27 -13
29 -15z m238 14 c7 -1 20 -9 29 -19 12 -13 12 -19 3 -25 -7 -4 -10 -3 -6 3 4
6 -8 16 -26 23 -61 23 -75 31 -42 25 17 -3 36 -6 42 -7z m363 -24 c0 -1 -9 0
-20 3 -11 3 -20 12 -20 19 0 11 5 10 20 -3 11 -10 20 -18 20 -19z m719 30 c17
-4 28 -10 25 -15 -8 -14 -38 -11 -60 6 -21 16 -12 18 35 9z m-989 -19 c10 -12
9 -15 -8 -15 -11 0 -22 7 -26 15 -3 9 0 15 8 15 7 0 19 -7 26 -15z m57 9 c-3
-3 -12 -4 -19 -1 -8 3 -5 6 6 6 11 1 17 -2 13 -5z m783 -13 c0 -4 -7 -8 -15
-8 -16 0 -20 9 -9 20 8 8 24 -1 24 -12z m105 -1 c3 -6 -1 -7 -9 -4 -18 7 -21
14 -7 14 6 0 13 -4 16 -10z m-1304 -17 c13 -17 13 -17 -6 -3 -11 8 -22 16 -24
17 -2 2 0 3 6 3 6 0 17 -8 24 -17z m266 3 c7 -6 -31 -11 -57 -7 -8 1 -21 3
-27 3 -7 1 -13 5 -13 10 0 9 88 4 97 -6z m1123 4 c0 -5 -4 -10 -10 -10 -5 0
-10 5 -10 10 0 6 5 10 10 10 6 0 10 -4 10 -10z m-1465 -18 c-3 -3 -11 0 -18 7
-9 10 -8 11 6 5 10 -3 15 -9 12 -12z m45 -2 c0 -5 -4 -10 -10 -10 -5 0 -10 5
-10 10 0 6 5 10 10 10 6 0 10 -4 10 -10z m211 0 c5 0 9 -4 9 -9 0 -12 -38 -2
-47 12 -4 7 0 8 11 4 10 -4 22 -7 27 -7z m299 0 c0 -13 -11 -13 -30 0 -12 8
-11 10 8 10 12 0 22 -4 22 -10z m650 0 c0 -5 -4 -10 -10 -10 -5 0 -10 5 -10
10 0 6 5 10 10 10 6 0 10 -4 10 -10z m-844 -11 c4 -8 -1 -9 -16 -4 -15 5 -20
4 -16 -4 4 -6 15 -11 24 -12 14 0 13 -2 -3 -9 -19 -8 -19 -9 3 -9 12 -1 21 -4
21 -8 -3 -20 2 -27 10 -14 8 12 12 12 25 -2 20 -19 21 -34 2 -18 -11 10 -20
10 -37 1 -12 -7 -19 -8 -15 -2 3 5 0 14 -7 20 -17 14 -129 42 -140 35 -6 -3
-7 -2 -4 4 4 6 30 9 59 7 29 -1 42 0 28 3 -23 5 -24 6 -5 14 29 11 63 11 71
-2z m1069 1 c-11 -5 -27 -9 -35 -9 -9 0 -8 4 5 9 11 5 27 9 35 9 9 0 8 -4 -5
-9z m-1449 -20 c9 0 13 -4 10 -9 -4 -5 -19 -4 -36 2 -25 10 -27 13 -13 18 10
3 20 2 21 -2 2 -5 10 -9 18 -9z m1114 10 c0 -5 -2 -10 -4 -10 -3 0 -8 5 -11
10 -3 6 -1 10 4 10 6 0 11 -4 11 -10z m-676 -18 c-13 -13 -17 -13 -29 -1 -12
12 -10 14 15 15 25 1 27 -1 14 -14z m-398 -19 c-10 -10 -19 5 -10 18 6 11 8
11 12 0 2 -7 1 -15 -2 -18z m1004 10 c0 -7 -6 -10 -14 -7 -8 3 -24 1 -35 -6
-25 -13 -27 -7 -6 14 18 17 55 17 55 -1z m-575 -3 c-3 -5 -11 -10 -16 -10 -6
0 -7 5 -4 10 3 6 11 10 16 10 6 0 7 -4 4 -10z m-485 -24 c11 -4 -62 -1 -90 3
-3 1 1 5 9 10 12 8 32 5 81 -13z m343 6 c36 -15 34 -23 -5 -17 -30 5 -26 1 11
-11 8 -2 12 -7 9 -9 -8 -9 -68 17 -62 26 7 12 -30 11 -42 -1 -6 -6 -10 -3 -10
9 0 15 7 18 36 16 19 -1 47 -7 63 -13z m487 -3 c0 -6 -4 -7 -10 -4 -5 3 -10
11 -10 16 0 6 5 7 10 4 6 -3 10 -11 10 -16z m328 3 c2 -7 -1 -12 -7 -12 -6 0
-11 4 -11 10 0 5 -8 7 -17 4 -15 -5 -16 -4 -3 5 17 12 32 10 38 -7z m312 8 c8
-5 11 -10 5 -10 -5 0 -17 5 -25 10 -8 5 -10 10 -5 10 6 0 17 -5 25 -10z m58
-2 c-2 -6 -20 -17 -39 -23 -28 -10 -37 -10 -48 2 -12 13 -11 14 7 9 11 -4 33
-4 48 0 25 7 26 8 9 15 -18 7 -18 8 3 8 14 1 22 -4 20 -11z m-788 -18 c0 -5
-2 -10 -4 -10 -3 0 -8 5 -11 10 -3 6 -1 10 4 10 6 0 11 -4 11 -10z m620 0 c0
-5 -2 -10 -4 -10 -3 0 -8 5 -11 10 -3 6 -1 10 4 10 6 0 11 -4 11 -10z m-824
-13 c20 8 17 -4 -4 -16 -15 -8 -18 -5 -19 12 0 12 1 17 4 10 2 -7 11 -9 19 -6z
m74 3 c0 -5 -5 -10 -11 -10 -5 0 -7 5 -4 10 3 6 8 10 11 10 2 0 4 -4 4 -10z
m84 2 c3 -5 0 -9 -7 -9 -7 0 -23 -3 -37 -8 -17 -5 -22 -4 -15 3 6 5 19 12 30
15 11 3 21 5 22 6 1 0 4 -3 7 -7z m400 -1 c7 -10 -22 -37 -30 -28 -9 8 3 37
15 37 5 0 12 -4 15 -9z m73 -7 c-3 -3 -12 -4 -19 -1 -8 3 -5 6 6 6 11 1 17 -2
13 -5z m217 -3 c3 -5 -1 -11 -9 -14 -9 -4 -12 -1 -8 9 6 16 10 17 17 5z m-649
-11 c4 -6 -1 -7 -11 -3 -14 5 -15 3 -5 -15 9 -17 8 -19 -9 -15 -20 5 -22 23
-5 35 14 10 23 10 30 -2z m733 -1 c24 0 24 -1 7 -8 -23 -9 -52 -3 -62 12 -4 7
0 8 11 4 10 -4 30 -7 44 -8z m-1372 -12 c4 -4 -5 -7 -19 -7 -15 0 -27 4 -27
10 0 11 35 8 46 -3z m299 -27 c8 -13 -5 -13 -25 0 -13 8 -13 10 2 10 9 0 20
-4 23 -10z m255 -5 c-7 -8 -19 -15 -26 -15 -8 0 -14 -8 -15 -17 0 -12 -2 -13
-6 -5 -6 16 25 52 45 52 12 0 12 -3 2 -15z m-295 -13 c-3 -3 -11 0 -18 7 -9
10 -8 11 6 5 10 -3 15 -9 12 -12z m840 -8 c-23 -17 -35 -18 -35 -1 0 6 12 13
27 14 26 1 27 0 8 -13z m265 -4 c24 -8 24 -8 -7 -9 -17 -1 -35 4 -38 9 -7 11
9 11 45 0z m-1333 -6 c-3 -3 -12 -4 -19 -1 -8 3 -5 6 6 6 11 1 17 -2 13 -5z
m460 0 c-3 -3 -12 -4 -19 -1 -8 3 -5 6 6 6 11 1 17 -2 13 -5z m693 -4 c0 -5
-4 -10 -10 -10 -5 0 -10 5 -10 10 0 6 5 10 10 10 6 0 10 -4 10 -10z m-1065
-10 c3 -6 -1 -7 -9 -4 -18 7 -21 14 -7 14 6 0 13 -4 16 -10z m263 -7 c-10 -2
-26 -2 -35 0 -10 3 -2 5 17 5 19 0 27 -2 18 -5z m102 -3 c18 -12 2 -12 -25 0
-13 6 -15 9 -5 9 8 0 22 -4 30 -9z m340 0 c0 -5 -4 -10 -10 -10 -5 0 -10 5
-10 10 0 6 5 10 10 10 6 0 10 -4 10 -10z m77 4 c-3 -3 -12 -4 -19 -1 -8 3 -5
6 6 6 11 1 17 -2 13 -5z m423 2 c0 -3 -4 -8 -10 -11 -5 -3 -10 -1 -10 4 0 6 5
11 10 11 6 0 10 -2 10 -4z m65 -6 c8 -13 -25 -13 -45 0 -12 8 -9 10 12 10 15
0 30 -4 33 -10z m-1205 -4 c0 -2 -7 -7 -16 -10 -8 -3 -12 -2 -9 4 6 10 25 14
25 6z m600 0 c0 -3 -4 -8 -10 -11 -5 -3 -10 -1 -10 4 0 6 5 11 10 11 6 0 10
-2 10 -4z m310 0 c0 -3 -4 -8 -10 -11 -5 -3 -10 -1 -10 4 0 6 5 11 10 11 6 0
10 -2 10 -4z m-856 -18 c-3 -4 0 -8 7 -8 9 0 10 -3 3 -10 -7 -7 -21 -7 -43 1
-24 8 -29 14 -19 20 16 10 58 8 52 -3z m173 -14 c-5 -5 -57 13 -57 20 0 3 14
0 31 -6 16 -6 28 -12 26 -14z m1033 17 c0 -6 -4 -12 -8 -15 -5 -3 -9 1 -9 9 0
8 4 15 9 15 4 0 8 -4 8 -9z m-380 -11 c0 -5 -4 -10 -10 -10 -5 0 -10 5 -10 10
0 6 5 10 10 10 6 0 10 -4 10 -10z m-757 -7 c-7 -2 -21 -2 -30 0 -10 3 -4 5 12
5 17 0 24 -2 18 -5z m432 -3 c-3 -5 -16 -10 -28 -9 -21 0 -21 1 -2 9 28 12 37
12 30 0z m410 0 c3 5 10 10 15 10 6 0 2 -9 -8 -20 -9 -11 -18 -16 -20 -10 -2
5 -8 8 -13 4 -5 -3 -9 2 -9 12 0 13 3 14 14 5 10 -8 16 -9 21 -1z m166 -13
c-10 -9 -11 -8 -5 6 3 10 9 15 12 12 3 -3 0 -11 -7 -18z m-931 -2 c17 10 11
-4 -10 -25 -10 -10 -22 -15 -25 -10 -3 4 1 10 7 13 9 3 7 10 -7 21 -20 17 -20
17 3 6 12 -6 27 -8 32 -5z m75 5 c8 -13 -5 -13 -25 0 -13 8 -13 10 2 10 9 0
20 -4 23 -10z m52 -16 c-3 -3 -12 -4 -19 -1 -8 3 -5 6 6 6 11 1 17 -2 13 -5z
m-57 -13 c0 -12 -39 -21 -45 -11 -3 5 3 11 12 13 29 8 33 7 33 -2z m264 -7 c3
-8 2 -12 -4 -9 -6 3 -10 10 -10 16 0 14 7 11 14 -7z m401 7 c-3 -5 1 -11 9
-13 8 -2 0 -10 -19 -20 -31 -16 -32 -16 -28 2 3 11 11 16 19 13 10 -4 12 0 8
11 -3 9 -1 16 6 16 6 0 9 -4 5 -9z m230 -15 c0 -17 -7 -26 -21 -29 -17 -3 -20
1 -16 20 2 12 8 20 12 18 5 -3 11 -1 15 5 9 14 10 13 10 -14z m-535 4 c0 -5
-4 -10 -10 -10 -5 0 -10 5 -10 10 0 6 5 10 10 10 6 0 10 -4 10 -10z m-520 -10
c0 -5 -5 -10 -11 -10 -5 0 -7 5 -4 10 3 6 8 10 11 10 2 0 4 -4 4 -10z m-496
-16 c3 -8 2 -12 -4 -9 -6 3 -10 10 -10 16 0 14 7 11 14 -7z m1626 -4 c8 -5 11
-10 5 -10 -5 0 -17 5 -25 10 -8 5 -10 10 -5 10 6 0 17 -5 25 -10z m-1417 -12
c-6 -11 -31 -10 -37 1 -3 5 5 8 18 7 13 0 22 -4 19 -8z m490 5 c-7 -2 -19 -2
-25 0 -7 3 -2 5 12 5 14 0 19 -2 13 -5z m887 -3 c0 -5 -12 -10 -27 -10 -22 0
-25 2 -13 10 20 13 40 13 40 0z m-1263 -6 c-3 -3 -12 -4 -19 -1 -8 3 -5 6 6 6
11 1 17 -2 13 -5z"/>
<path d="M1700 2770 c0 -5 5 -10 10 -10 6 0 10 5 10 10 0 6 -4 10 -10 10 -5 0
-10 -4 -10 -10z"/>
<path d="M1447 2463 c-4 -3 -7 -13 -7 -21 0 -12 3 -12 15 -2 8 7 15 16 15 21
0 11 -14 12 -23 2z"/>
<path d="M3250 3969 l-35 -6 30 -3 c18 -1 23 -4 13 -7 -26 -7 -22 -22 7 -29
14 -3 25 -10 25 -15 0 -5 -11 -7 -24 -3 -13 3 -27 1 -30 -5 -7 -11 11 -16 49
-13 18 2 19 1 2 -9 -9 -6 -27 -8 -40 -5 -14 4 -12 1 7 -8 22 -10 25 -14 12
-19 -9 -4 -16 -2 -16 3 0 6 -5 10 -11 10 -6 0 -9 -7 -5 -15 4 -12 2 -13 -14
-3 -10 7 -16 16 -14 20 3 4 1 8 -5 8 -6 0 -8 7 -4 15 4 13 -2 15 -38 10 -35
-5 -41 -4 -29 5 13 10 13 11 -2 7 -9 -3 -19 -1 -21 6 -2 7 -8 9 -12 5 -10 -9
20 -38 39 -38 9 0 25 -5 35 -12 18 -11 18 -13 3 -25 -12 -8 -13 -12 -4 -13 13
0 43 -24 39 -31 -1 -3 3 1 8 7 6 6 25 19 43 28 18 9 30 21 27 26 -3 5 5 12 19
16 14 3 30 12 36 19 9 11 7 12 -9 8 -13 -3 -21 -1 -21 7 0 9 10 11 33 7 23 -3
40 0 58 13 22 18 22 19 4 19 -22 0 -96 15 -111 22 -5 3 -25 2 -44 -2z m94 -19
c14 0 27 -4 31 -9 3 -6 -10 -8 -32 -5 -52 8 -63 12 -63 24 0 7 6 8 19 0 11 -5
31 -10 45 -10z"/>
<path d="M3102 3940 c7 -11 16 -20 20 -20 3 0 12 -2 20 -5 7 -3 22 2 33 10 19
15 18 16 -15 10 -23 -3 -29 -2 -16 3 19 8 18 9 -5 15 -44 12 -51 9 -37 -13z"/>
<path d="M3215 3920 c-3 -5 -1 -10 4 -10 6 0 11 5 11 10 0 6 -2 10 -4 10 -3 0
-8 -4 -11 -10z"/>
<path d="M3073 3881 c10 -4 17 -11 15 -15 -2 -5 7 -15 20 -23 14 -10 22 -11
22 -4 0 6 -6 12 -12 12 -7 1 1 5 17 9 l30 8 -32 1 c-17 0 -35 6 -38 11 -3 6
-14 10 -23 9 -15 0 -15 -1 1 -8z"/>
<path d="M2998 3863 c7 -3 16 -2 19 1 4 3 -2 6 -13 5 -11 0 -14 -3 -6 -6z"/>
<path d="M3036 3845 c4 -8 11 -15 16 -15 6 0 5 6 -2 15 -7 8 -14 15 -16 15 -2
0 -1 -7 2 -15z"/>
<path d="M3150 3810 c12 -8 12 -10 1 -10 -8 0 -12 -2 -9 -5 3 -3 13 -3 22 1
19 7 11 24 -12 24 -15 0 -15 -2 -2 -10z"/>
<path d="M3122 3761 c10 -16 15 -17 26 -8 12 9 11 12 -5 18 -30 12 -34 10 -21
-10z"/>
<path d="M3035 3760 c3 -5 8 -10 11 -10 2 0 4 5 4 10 0 6 -5 10 -11 10 -5 0
-7 -4 -4 -10z"/>
<path d="M2855 3750 c-4 -6 5 -10 19 -10 14 0 26 5 26 10 0 6 -9 10 -19 10
-11 0 -23 -4 -26 -10z"/>
<path d="M2998 3743 c7 -3 16 -2 19 1 4 3 -2 6 -13 5 -11 0 -14 -3 -6 -6z"/>
<path d="M3040 3700 c-15 -28 -1 -43 25 -24 17 13 18 16 3 30 -15 15 -17 15
-28 -6z m24 1 c3 -5 -2 -15 -12 -22 -15 -12 -16 -12 -5 2 7 9 10 19 6 22 -3 4
-4 7 0 7 3 0 8 -4 11 -9z"/>
<path d="M2980 3670 c0 -5 5 -10 10 -10 6 0 10 5 10 10 0 6 -4 10 -10 10 -5 0
-10 -4 -10 -10z"/>
<path d="M2878 3658 c5 -5 16 -8 23 -6 8 3 3 7 -10 11 -17 4 -21 3 -13 -5z"/>
<path d="M3011 3644 c0 -11 3 -14 6 -6 3 7 2 16 -1 19 -3 4 -6 -2 -5 -13z"/>
<path d="M2920 3642 c0 -7 7 -9 17 -5 10 4 14 2 9 -5 -4 -7 4 -10 24 -10 37 1
27 15 -18 24 -20 4 -32 3 -32 -4z"/>
<path d="M2835 3630 c3 -6 -1 -7 -9 -4 -18 7 -22 -11 -5 -22 8 -4 7 -9 -2 -15
-7 -4 -11 -10 -8 -13 3 -3 15 3 26 14 18 16 27 17 55 10 42 -13 61 -13 53 0
-3 6 -16 10 -28 10 -12 0 -35 7 -51 15 -33 18 -39 19 -31 5z"/>
<path d="M2847 3576 c-4 -11 -1 -13 11 -9 15 6 15 5 3 -10 -7 -9 -12 -18 -10
-18 33 -10 60 -4 80 17 l23 25 -29 -2 c-17 0 -40 2 -51 6 -14 4 -23 2 -27 -9z"/>
<path d="M2715 3570 c-3 -5 -3 -10 2 -10 4 0 1 -4 -6 -9 -12 -8 -9 -11 13 -17
17 -4 32 -2 39 5 9 10 6 11 -15 6 -24 -6 -27 -4 -23 14 4 23 0 27 -10 11z"/>
<path d="M2791 3531 c-9 -6 -10 -11 -2 -15 6 -4 11 -4 11 1 0 4 4 1 10 -7 5
-9 5 -19 -1 -26 -12 -15 5 -29 22 -18 8 4 7 9 -2 15 -10 6 -7 9 11 10 l25 1
-25 8 c-17 5 -19 8 -7 9 9 1 17 6 17 12 0 5 -4 8 -9 4 -5 -3 -12 -1 -16 5 -8
12 -16 12 -34 1z"/>
<path d="M2678 3523 c7 -3 16 -2 19 1 4 3 -2 6 -13 5 -11 0 -14 -3 -6 -6z"/>
<path d="M2768 3493 c6 -2 18 -2 25 0 6 3 1 5 -13 5 -14 0 -19 -2 -12 -5z"/>
<path d="M2710 3480 c-13 -9 -13 -10 0 -11 8 -1 19 -1 23 0 5 1 20 -8 34 -19
25 -19 43 -19 43 1 0 6 -6 9 -12 6 -7 -2 -24 4 -37 14 -27 22 -31 22 -51 9z"/>
<path d="M3615 3560 c-3 -6 1 -7 9 -4 18 7 21 14 7 14 -6 0 -13 -4 -16 -10z"/>
<path d="M3570 3541 c0 -5 7 -11 15 -15 9 -3 15 0 15 9 0 8 -7 15 -15 15 -8 0
-15 -4 -15 -9z"/>
<path d="M3462 3445 c-12 -13 -19 -31 -16 -39 4 -11 0 -13 -18 -9 -20 6 -21 4
-10 -9 11 -14 10 -17 -5 -21 -16 -4 -17 -5 -1 -11 22 -10 107 72 88 84 -7 4
-9 13 -6 19 13 21 -10 11 -32 -14z"/>
<path d="M3351 3444 c0 -11 3 -14 6 -6 3 7 2 16 -1 19 -3 4 -6 -2 -5 -13z"/>
<path d="M3260 3180 c0 -5 5 -10 11 -10 5 0 7 5 4 10 -3 6 -8 10 -11 10 -2 0
-4 -4 -4 -10z"/>
<path d="M3166 3094 c-9 -24 -7 -28 9 -14 17 14 20 30 6 30 -5 0 -12 -7 -15
-16z"/>
<path d="M2980 3080 c0 -5 7 -7 15 -4 8 4 15 8 15 10 0 2 -7 4 -15 4 -8 0 -15
-4 -15 -10z"/>
<path d="M2860 3060 c0 -5 4 -10 9 -10 6 0 13 5 16 10 3 6 -1 10 -9 10 -9 0
-16 -4 -16 -10z"/>
<path d="M3130 3049 c0 -5 -5 -7 -12 -3 -7 5 -8 3 -3 -6 6 -10 4 -12 -8 -7 -8
3 -33 9 -54 12 -28 5 -34 4 -23 -4 8 -6 23 -11 33 -11 9 0 17 -7 17 -15 0 -21
13 -19 44 10 28 26 32 35 16 35 -5 0 -10 -5 -10 -11z"/>
<path d="M3010 3016 c0 -9 30 -14 35 -6 4 6 -3 10 -14 10 -12 0 -21 -2 -21 -4z"/>
<path d="M3026 2733 c-6 -14 -5 -15 5 -6 7 7 10 15 7 18 -3 3 -9 -2 -12 -12z"/>
<path d="M2807 2532 c-24 -27 -21 -36 4 -11 11 11 19 23 16 25 -2 2 -11 -4
-20 -14z"/>
<path d="M2498 2273 c6 -2 18 -2 25 0 6 3 1 5 -13 5 -14 0 -19 -2 -12 -5z"/>
<path d="M1529 1243 c-13 -16 -12 -17 4 -4 16 13 21 21 13 21 -2 0 -10 -8 -17
-17z"/>
<path d="M1130 923 c0 -5 -24 -28 -53 -52 -28 -24 -46 -38 -39 -31 6 8 12 19
12 24 -1 19 -30 -27 -30 -46 0 -17 3 -17 24 -6 39 21 114 118 91 118 -3 0 -5
-3 -5 -7z"/>
<path d="M3765 3210 c-3 -5 -1 -10 4 -10 6 0 11 5 11 10 0 6 -2 10 -4 10 -3 0
-8 -4 -11 -10z"/>
<path d="M3847 3169 c-3 -12 -10 -18 -16 -14 -6 3 -11 1 -11 -4 0 -6 -7 -11
-17 -11 -9 0 -13 -3 -9 -7 10 -10 76 28 76 44 0 21 -17 15 -23 -8z"/>
<path d="M3716 3161 c-3 -4 6 -6 19 -3 14 2 25 6 25 8 0 8 -39 4 -44 -5z"/>
<path d="M3770 3150 c-18 -12 -2 -12 25 0 13 6 15 9 5 9 -8 0 -22 -4 -30 -9z"/>
<path d="M3730 3100 c-8 -5 -11 -12 -8 -16 4 -3 14 1 23 10 18 17 9 21 -15 6z"/>
<path d="M3410 2890 c0 -6 7 -10 15 -10 8 0 15 2 15 4 0 2 -7 6 -15 10 -8 3
-15 1 -15 -4z"/>
<path d="M3470 2825 c-7 -8 -8 -15 -2 -15 5 0 15 7 22 15 7 8 8 15 2 15 -5 0
-15 -7 -22 -15z"/>
<path d="M3248 2713 c7 -3 16 -2 19 1 4 3 -2 6 -13 5 -11 0 -14 -3 -6 -6z"/>
<path d="M3331 2694 c0 -11 3 -14 6 -6 3 7 2 16 -1 19 -3 4 -6 -2 -5 -13z"/>
<path d="M3087 2629 c7 -7 15 -10 18 -7 3 3 -2 9 -12 12 -14 6 -15 5 -6 -5z"/>
<path d="M3117 2611 c-18 -7 -18 -7 0 -21 10 -8 15 -10 11 -6 -4 5 -3 15 3 23
13 14 12 15 -14 4z"/>
<path d="M3140 2565 c0 -8 4 -15 8 -15 5 0 9 7 9 15 0 8 -4 15 -9 15 -4 0 -8
-7 -8 -15z"/>
<path d="M3050 2539 c0 -5 -4 -7 -10 -4 -5 3 -10 2 -10 -2 0 -5 9 -14 20 -20
16 -11 18 -10 14 2 -7 18 7 20 24 3 9 -9 12 -9 12 0 0 6 -9 16 -19 22 -25 13
-31 13 -31 -1z"/>
<path d="M2960 2400 c0 -5 10 -10 23 -10 18 0 19 2 7 10 -19 13 -30 13 -30 0z"/>
<path d="M2810 2310 c0 -5 7 -10 15 -10 8 0 15 5 15 10 0 6 -7 10 -15 10 -8 0
-15 -4 -15 -10z"/>
<path d="M543 1578 c3 -10 2 -18 -3 -18 -6 0 -10 -4 -10 -10 0 -15 27 -12 33
4 3 8 -2 20 -10 28 -15 11 -16 11 -10 -4z"/>
<path d="M342 1408 c-15 -15 -16 -31 -1 -26 6 2 10 7 9 12 -1 5 4 13 12 17 7
5 8 9 3 9 -6 0 -16 -5 -23 -12z"/>
<path d="M2998 1293 c7 -3 16 -2 19 1 4 3 -2 6 -13 5 -11 0 -14 -3 -6 -6z"/>
<path d="M3065 1270 c3 -5 8 -10 11 -10 2 0 4 5 4 10 0 6 -5 10 -11 10 -5 0
-7 -4 -4 -10z"/>
<path d="M2960 1240 c8 -5 20 -10 25 -10 6 0 3 5 -5 10 -8 5 -19 10 -25 10 -5
0 -3 -5 5 -10z"/>
<path d="M2878 1193 c6 -2 18 -2 25 0 6 3 1 5 -13 5 -14 0 -19 -2 -12 -5z"/>
<path d="M3078 763 c6 -2 18 -2 25 0 6 3 1 5 -13 5 -14 0 -19 -2 -12 -5z"/>
<path d="M3064 733 c1 -18 14 -33 29 -33 5 0 5 5 1 12 -4 6 -3 8 4 5 13 -9 44
2 37 14 -3 4 -12 6 -19 3 -8 -3 -17 -1 -21 5 -10 17 -33 13 -31 -6z"/>
<path d="M4157 606 c-4 -10 -1 -13 8 -9 8 3 12 9 9 14 -7 12 -11 11 -17 -5z"/>
<path d="M3920 600 c0 -6 7 -10 15 -10 8 0 15 2 15 4 0 2 -7 6 -15 10 -8 3
-15 1 -15 -4z"/>
<path d="M4108 533 c6 -2 18 -2 25 0 6 3 1 5 -13 5 -14 0 -19 -2 -12 -5z"/>
<path d="M4078 513 c7 -3 16 -2 19 1 4 3 -2 6 -13 5 -11 0 -14 -3 -6 -6z"/>
<path d="M3320 146 c0 -2 9 -6 20 -9 11 -3 18 -1 14 4 -5 9 -34 13 -34 5z"/>
<path d="M1906 4548 c51 -55 64 -66 64 -51 0 12 -91 103 -103 103 -5 0 12 -24
39 -52z"/>
<path d="M1990 4478 c0 -7 46 -65 101 -128 115 -131 140 -157 84 -85 -102 130
-185 226 -185 213z"/>
<path d="M1155 4459 c-4 -6 -5 -12 -2 -15 2 -3 7 2 10 11 7 17 1 20 -8 4z"/>
<path d="M4340 4066 c0 -2 8 -10 18 -17 15 -13 16 -12 3 4 -13 16 -21 21 -21
13z"/>
<path d="M4268 3193 c7 -3 16 -2 19 1 4 3 -2 6 -13 5 -11 0 -14 -3 -6 -6z"/>
<path d="M4358 3173 c7 -3 16 -2 19 1 4 3 -2 6 -13 5 -11 0 -14 -3 -6 -6z"/>
<path d="M4167 3087 c-3 -8 3 -14 16 -15 12 0 17 2 12 6 -6 4 -13 11 -16 15
-4 4 -9 2 -12 -6z"/>
<path d="M4250 2930 c-111 -112 -142 -146 -159 -178 -20 -38 -6 -36 20 3 13
19 29 33 36 31 7 -3 10 1 6 10 -3 7 0 14 7 14 6 0 23 14 37 30 13 17 31 30 39
30 9 0 13 4 10 8 -3 5 6 15 19 22 14 7 25 16 25 19 0 4 14 22 31 40 16 18 29
41 27 49 -2 12 -33 -13 -98 -78z"/>
<path d="M3965 2980 c-3 -5 -2 -10 4 -10 5 0 13 5 16 10 3 6 2 10 -4 10 -5 0
-13 -4 -16 -10z"/>
<path d="M3890 2926 c0 -2 7 -7 16 -10 8 -3 12 -2 9 4 -6 10 -25 14 -25 6z"/>
<path d="M4002 2894 c-7 -8 -10 -19 -7 -24 3 -6 0 -10 -7 -10 -7 0 -19 -9 -26
-20 -7 -11 -24 -20 -40 -21 -17 -1 -20 -3 -9 -6 19 -5 22 -18 7 -28 -5 -3 -10
-10 -10 -15 0 -16 87 80 107 118 13 25 5 29 -15 6z"/>
<path d="M3788 2813 c7 -3 16 -2 19 1 4 3 -2 6 -13 5 -11 0 -14 -3 -6 -6z"/>
<path d="M3832 2800 c10 -6 25 -7 40 -1 20 9 18 10 -17 10 -31 0 -36 -2 -23
-9z"/>
<path d="M3878 2783 c7 -3 16 -2 19 1 4 3 -2 6 -13 5 -11 0 -14 -3 -6 -6z"/>
<path d="M3758 2749 c13 -12 73 -28 67 -19 -4 6 -13 10 -21 10 -8 0 -14 4 -14
8 0 4 -9 8 -20 8 -11 0 -16 -3 -12 -7z"/>
<path d="M3934 2593 c-119 -118 -177 -185 -291 -341 -47 -63 -50 -72 -27 -72
8 0 13 4 10 9 -7 10 22 25 44 22 12 -1 12 0 2 7 -16 11 -5 42 16 42 8 0 12 3
9 6 -10 10 25 64 41 64 8 0 12 6 8 15 -3 9 0 15 8 15 8 0 16 7 20 15 3 8 13
15 23 15 14 0 15 2 4 9 -11 7 -9 10 7 15 11 4 22 16 25 26 4 15 10 18 24 13
15 -6 16 -4 6 9 -15 18 -7 28 21 28 18 0 19 2 6 11 -12 8 -11 10 5 7 11 -2 20
-8 20 -15 0 -6 3 -14 7 -18 11 -11 3 22 -9 37 -19 22 30 62 75 61 33 -1 35 0
15 10 -27 12 -28 20 -8 40 8 8 11 17 8 21 -4 3 1 6 10 6 10 0 17 7 17 15 0 8
4 15 10 15 5 0 14 9 20 20 6 11 9 20 7 20 -3 0 -63 -57 -133 -127z"/>
<path d="M3828 2703 c6 -2 9 -10 6 -15 -4 -7 -2 -8 4 -4 18 11 14 26 -5 25
-11 0 -13 -3 -5 -6z"/>
<path d="M3733 2683 c9 -2 23 -2 30 0 6 3 -1 5 -18 5 -16 0 -22 -2 -12 -5z"/>
<path d="M3704 2654 c3 -9 6 -18 6 -20 0 -3 4 -3 10 1 11 7 2 35 -12 35 -6 0
-7 -7 -4 -16z"/>
<path d="M3607 2639 c7 -7 15 -10 18 -7 3 3 -2 9 -12 12 -14 6 -15 5 -6 -5z"/>
<path d="M3580 2561 c0 -11 4 -22 9 -25 4 -3 6 6 3 19 -5 30 -12 33 -12 6z"/>
<path d="M3710 2560 c0 -5 -7 -10 -17 -10 -9 0 -13 -3 -10 -7 4 -3 2 -12 -4
-20 -8 -9 -8 -13 -1 -13 6 0 20 14 32 30 12 17 17 30 11 30 -6 0 -11 -4 -11
-10z"/>
<path d="M3477 2519 c7 -7 15 -10 18 -7 3 3 -2 9 -12 12 -14 6 -15 5 -6 -5z"/>
<path d="M3432 2456 c7 -8 15 -12 17 -11 5 6 -10 25 -20 25 -5 0 -4 -6 3 -14z"/>
<path d="M3558 2463 c7 -3 16 -2 19 1 4 3 -2 6 -13 5 -11 0 -14 -3 -6 -6z"/>
<path d="M3344 2410 c-1 -16 3 -27 7 -24 11 6 12 54 2 54 -5 0 -8 -13 -9 -30z"/>
<path d="M3523 2433 c-10 -3 -10 -7 0 -18 13 -14 41 0 31 16 -6 10 -12 10 -31
2z"/>
<path d="M3584 2429 c-8 -14 14 -19 25 -6 8 10 7 14 -5 14 -8 0 -17 -4 -20 -8z"/>
<path d="M3485 2401 c-9 -16 9 -20 23 -5 10 12 10 14 -2 14 -8 0 -17 -4 -21
-9z"/>
<path d="M3553 2378 c1 -7 -7 -13 -18 -14 -42 -2 -47 -4 -42 -18 4 -9 -3 -17
-16 -21 -21 -6 -20 -7 8 -16 17 -5 31 -5 33 0 2 5 14 22 28 38 26 30 30 43 14
43 -5 0 -9 -6 -7 -12z m-36 -40 c-3 -8 -6 -5 -6 6 -1 11 2 17 5 13 3 -3 4 -12
1 -19z"/>
<path d="M3900 2386 c0 -2 7 -7 16 -10 8 -3 12 -2 9 4 -6 10 -25 14 -25 6z"/>
<path d="M4280 2371 c-8 -10 -40 -44 -70 -77 -87 -94 -112 -125 -106 -131 8
-8 34 16 41 38 4 10 12 19 18 19 7 0 28 22 47 47 19 26 47 60 63 75 15 16 27
33 27 38 0 13 -2 12 -20 -9z"/>
<path d="M3235 2220 c27 -12 43 -12 25 0 -8 5 -22 9 -30 9 -10 0 -8 -3 5 -9z"/>
<path d="M4510 2142 c0 -4 14 -15 30 -24 29 -17 30 -17 20 1 -9 18 -50 36 -50
23z"/>
<path d="M4580 2130 c0 -5 5 -10 10 -10 6 0 10 5 10 10 0 6 -4 10 -10 10 -5 0
-10 -4 -10 -10z"/>
<path d="M3655 2080 c3 -5 8 -10 11 -10 2 0 4 5 4 10 0 6 -5 10 -11 10 -5 0
-7 -4 -4 -10z"/>
<path d="M3757 2049 c7 -7 15 -10 18 -7 3 3 -2 9 -12 12 -14 6 -15 5 -6 -5z"/>
<path d="M3558 2033 c7 -3 16 -2 19 1 4 3 -2 6 -13 5 -11 0 -14 -3 -6 -6z"/>
<path d="M3688 2023 c7 -3 16 -2 19 1 4 3 -2 6 -13 5 -11 0 -14 -3 -6 -6z"/>
<path d="M3782 2016 c7 -8 15 -12 17 -11 5 6 -10 25 -20 25 -5 0 -4 -6 3 -14z"/>
<path d="M3567 2003 c-24 -23 26 -38 62 -18 14 8 22 14 16 14 -5 1 -17 -4 -25
-9 -10 -6 -20 -4 -31 6 -8 8 -19 11 -22 7z"/>
<path d="M3717 1963 c6 -16 33 -25 30 -10 -1 7 4 11 11 10 6 -2 12 1 12 6 0 4
-13 8 -29 7 -17 -1 -27 -6 -24 -13z"/>
<path d="M4507 1945 c7 -49 16 -61 33 -40 10 12 10 15 -5 15 -13 0 -16 6 -13
25 3 13 2 22 -3 20 -4 -3 -10 1 -13 7 -3 7 -3 -5 1 -27z"/>
<path d="M4450 1962 c0 -15 11 -21 27 -15 12 5 12 7 1 14 -17 11 -28 11 -28 1z"/>
<path d="M4540 1949 c0 -5 5 -7 10 -4 6 3 10 8 10 11 0 2 -4 4 -10 4 -5 0 -10
-5 -10 -11z"/>
<path d="M3594 1931 c0 -11 5 -17 13 -14 10 4 11 9 2 19 -15 18 -15 18 -15 -5z"/>
<path d="M4400 1930 c-7 -14 -7 -20 0 -20 5 0 10 -8 9 -17 0 -11 -3 -13 -6 -5
-2 6 -12 12 -20 12 -13 0 -13 -3 -3 -15 11 -13 10 -14 -5 -8 -15 5 -17 3 -11
-13 5 -10 9 -26 11 -34 1 -8 0 -9 -2 -2 -3 6 -11 12 -19 12 -16 0 -15 -40 1
-53 6 -5 0 -5 -12 -2 -14 4 -23 2 -23 -4 0 -6 6 -11 14 -11 7 0 19 -7 26 -15
7 -8 20 -15 28 -15 14 0 14 2 -1 13 -21 15 -10 34 22 38 14 2 26 11 28 19 4
13 3 13 -6 0 -9 -12 -12 -13 -20 -1 -25 39 26 70 56 34 13 -16 14 -16 9 -1 -2
9 2 22 10 28 19 16 18 34 -1 26 -8 -3 -15 -1 -15 5 0 6 -5 7 -11 4 -6 -4 -13
2 -16 13 -7 29 -31 35 -43 12z"/>
<path d="M3512 1933 c-8 -3 -5 -11 12 -24 27 -21 36 -24 36 -10 0 5 -10 11
-22 15 -19 5 -21 8 -8 16 16 10 4 12 -18 3z"/>
<path d="M3655 1930 c3 -5 8 -10 11 -10 2 0 4 5 4 10 0 6 -5 10 -11 10 -5 0
-7 -4 -4 -10z"/>
<path d="M4475 1930 c-3 -5 -1 -10 4 -10 6 0 11 5 11 10 0 6 -2 10 -4 10 -3 0
-8 -4 -11 -10z"/>
<path d="M3558 1923 c7 -3 16 -2 19 1 4 3 -2 6 -13 5 -11 0 -14 -3 -6 -6z"/>
<path d="M3682 1917 c-7 -8 -9 -17 -5 -20 3 -4 -5 -7 -18 -8 -22 0 -22 -1 -4
-9 25 -10 66 23 49 40 -8 8 -14 7 -22 -3z"/>
<path d="M3618 1903 c7 -3 16 -2 19 1 4 3 -2 6 -13 5 -11 0 -14 -3 -6 -6z"/>
<path d="M4528 1883 c-16 -2 -28 -9 -28 -14 0 -11 39 -2 55 12 5 5 7 8 5 8 -3
-1 -17 -4 -32 -6z"/>
<path d="M3971 1857 c2 -1 13 -9 24 -17 19 -14 19 -14 6 3 -7 9 -18 17 -24 17
-6 0 -8 -1 -6 -3z"/>
<path d="M3596 1794 c-9 -24 -2 -26 12 -4 7 11 8 20 3 20 -5 0 -12 -7 -15 -16z"/>
<path d="M4298 1803 c6 -2 18 -2 25 0 6 3 1 5 -13 5 -14 0 -19 -2 -12 -5z"/>
<path d="M3385 1790 c-3 -5 1 -10 9 -10 9 0 16 5 16 10 0 6 -4 10 -9 10 -6 0
-13 -4 -16 -10z"/>
<path d="M3515 1790 c-4 -6 -16 -8 -28 -5 -17 5 -19 4 -7 -4 12 -9 13 -11 1
-11 -8 0 -12 -3 -9 -6 4 -3 16 -1 27 6 15 8 21 8 21 0 0 -7 9 -9 23 -5 l22 6
-23 -20 c-18 -16 -21 -24 -14 -38 9 -15 12 -13 30 17 19 31 20 35 4 46 -9 6
-23 9 -31 6 -9 -3 -12 -1 -7 6 4 7 5 12 2 12 -3 0 -8 -5 -11 -10z"/>
<path d="M2970 1770 c-8 -5 -10 -10 -5 -10 6 0 17 5 25 10 8 5 11 10 5 10 -5
0 -17 -5 -25 -10z"/>
<path d="M2804 1743 c-12 -20 3 -43 28 -43 8 0 31 -9 53 -20 41 -21 65 -25 65
-12 0 5 9 18 20 30 26 28 17 28 -23 0 -24 -17 -29 -19 -24 -5 5 13 -2 16 -46
19 -44 3 -52 6 -57 26 -5 21 -6 21 -16 5z m103 -49 c-3 -3 -12 -4 -19 -1 -8 3
-5 6 6 6 11 1 17 -2 13 -5z"/>
<path d="M4315 1750 c3 -5 11 -10 16 -10 6 0 7 5 4 10 -3 6 -11 10 -16 10 -6
0 -7 -4 -4 -10z"/>
<path d="M4410 1750 c0 -5 5 -10 10 -10 6 0 10 5 10 10 0 6 -4 10 -10 10 -5 0
-10 -4 -10 -10z"/>
<path d="M3436 1738 c2 -3 -2 -9 -8 -11 -9 -4 -8 -6 2 -6 8 0 26 6 39 13 l24
13 -31 -1 c-16 0 -28 -4 -26 -8z"/>
<path d="M4470 1731 c0 -5 5 -13 10 -16 6 -3 10 -2 10 4 0 5 -4 13 -10 16 -5
3 -10 2 -10 -4z"/>
<path d="M2758 1713 c7 -3 16 -2 19 1 4 3 -2 6 -13 5 -11 0 -14 -3 -6 -6z"/>
<path d="M4378 1713 c17 -7 15 -23 -3 -23 -8 0 -15 -5 -15 -11 0 -6 -9 -9 -20
-6 -21 5 -28 -7 -10 -18 11 -7 70 25 70 37 0 5 10 13 23 18 18 7 16 9 -18 9
-22 -1 -34 -3 -27 -6z"/>
<path d="M4500 1690 c0 -5 9 -14 20 -20 11 -6 20 -7 20 -3 0 5 -9 14 -20 21
-11 7 -20 8 -20 2z"/>
<path d="M3496 1675 c3 -7 -4 -19 -16 -25 -11 -6 -17 -16 -14 -22 5 -8 1 -9
-11 -4 -15 5 -16 4 -5 -9 11 -13 15 -11 33 13 12 15 27 33 34 40 17 17 17 17
-6 19 -13 1 -18 -3 -15 -12z"/>
<path d="M4415 1680 c-4 -6 4 -10 19 -10 21 0 26 -5 25 -22 0 -13 -3 -17 -6
-10 -2 6 -9 12 -15 12 -6 0 -8 -7 -5 -15 5 -11 0 -13 -25 -8 -22 4 -29 3 -24
-6 4 -6 12 -9 17 -6 5 4 9 2 9 -3 0 -17 -28 -21 -40 -6 -7 8 -20 14 -29 14
-11 -1 -7 -8 13 -25 17 -13 34 -21 39 -18 5 3 13 -1 18 -8 6 -10 9 -11 9 -1 0
6 7 12 15 12 8 0 15 5 15 11 0 6 -7 8 -16 5 -14 -5 -15 -4 -5 8 7 9 25 13 44
12 18 -2 24 -1 14 1 -10 3 -14 9 -10 16 4 6 7 20 8 32 0 17 -6 22 -32 23 -17
2 -34 -2 -38 -8z"/>
<path d="M2698 1673 c7 -3 16 -2 19 1 4 3 -2 6 -13 5 -11 0 -14 -3 -6 -6z"/>
<path d="M3840 1669 c0 -5 9 -9 20 -9 11 0 20 2 20 4 0 2 -9 6 -20 9 -11 3
-20 1 -20 -4z"/>
<path d="M3285 1641 c-3 -5 -1 -12 5 -16 5 -3 10 1 10 9 0 18 -6 21 -15 7z"/>
<path d="M3375 1640 c-18 -8 -17 -9 8 -9 16 -1 26 3 22 9 -3 6 -7 10 -8 9 -1
0 -11 -4 -22 -9z"/>
<path d="M4305 1640 c3 -5 11 -10 16 -10 6 0 7 5 4 10 -3 6 -11 10 -16 10 -6
0 -7 -4 -4 -10z"/>
<path d="M3917 1609 c7 -7 15 -10 18 -7 3 3 -2 9 -12 12 -14 6 -15 5 -6 -5z"/>
<path d="M4535 1600 c3 -5 11 -10 16 -10 6 0 7 5 4 10 -3 6 -11 10 -16 10 -6
0 -7 -4 -4 -10z"/>
<path d="M4290 1589 c0 -5 5 -7 10 -4 6 3 10 8 10 11 0 2 -4 4 -10 4 -5 0 -10
-5 -10 -11z"/>
<path d="M4580 1575 c0 -8 5 -15 10 -15 6 0 10 7 10 15 0 8 -4 15 -10 15 -5 0
-10 -7 -10 -15z"/>
<path d="M3748 1573 c6 -2 18 -2 25 0 6 3 1 5 -13 5 -14 0 -19 -2 -12 -5z"/>
<path d="M3870 1570 c0 -5 10 -10 23 -10 18 0 19 2 7 10 -19 13 -30 13 -30 0z"/>
<path d="M3190 1560 c8 -5 20 -10 25 -10 6 0 3 5 -5 10 -8 5 -19 10 -25 10 -5
0 -3 -5 5 -10z"/>
<path d="M4495 1560 c3 -5 10 -10 16 -10 5 0 9 5 9 10 0 6 -7 10 -16 10 -8 0
-12 -4 -9 -10z"/>
<path d="M3800 1550 c0 -5 5 -10 10 -10 6 0 10 5 10 10 0 6 -4 10 -10 10 -5 0
-10 -4 -10 -10z"/>
<path d="M4315 1549 c-4 -6 -5 -12 -2 -15 2 -3 7 2 10 11 7 17 1 20 -8 4z"/>
<path d="M3238 1543 c7 -3 16 -2 19 1 4 3 -2 6 -13 5 -11 0 -14 -3 -6 -6z"/>
<path d="M4499 1535 c18 -8 36 -15 40 -15 13 1 -45 29 -59 29 -8 0 0 -6 19
-14z"/>
<path d="M4560 1538 l25 -11 -25 -7 c-14 -4 -36 -6 -50 -3 -24 4 -24 4 -5 -8
11 -7 28 -20 38 -30 21 -19 57 -31 57 -19 0 5 -8 11 -17 13 -17 4 -17 5 0 6
13 1 17 10 17 36 0 33 -2 35 -32 34 -33 0 -33 0 -8 -11z"/>
<path d="M3275 1531 c-3 -5 -2 -12 3 -15 5 -3 9 1 9 9 0 17 -3 19 -12 6z"/>
<path d="M3917 1529 c7 -7 15 -10 18 -7 3 3 -2 9 -12 12 -14 6 -15 5 -6 -5z"/>
<path d="M4445 1530 c3 -5 8 -10 11 -10 2 0 4 5 4 10 0 6 -5 10 -11 10 -5 0
-7 -4 -4 -10z"/>
<path d="M3746 1522 c-3 -5 1 -9 9 -9 8 0 12 4 9 9 -3 4 -7 8 -9 8 -2 0 -6 -4
-9 -8z"/>
<path d="M3210 1500 c8 -5 22 -9 30 -9 10 0 8 3 -5 9 -27 12 -43 12 -25 0z"/>
<path d="M3108 1493 c7 -3 16 -2 19 1 4 3 -2 6 -13 5 -11 0 -14 -3 -6 -6z"/>
<path d="M3270 1488 c0 -10 9 -9 35 2 17 8 16 8 -7 7 -16 -1 -28 -5 -28 -9z"/>
<path d="M3794 1485 c-17 -13 -16 -14 14 -4 33 11 41 19 19 19 -7 0 -22 -7
-33 -15z"/>
<path d="M3892 1488 c2 -6 11 -13 19 -16 12 -3 12 -2 0 6 -11 8 -11 10 0 15
10 4 8 6 -4 6 -10 1 -17 -4 -15 -11z"/>
<path d="M3740 1480 c-8 -5 -10 -10 -5 -10 6 0 17 5 25 10 8 5 11 10 5 10 -5
0 -17 -5 -25 -10z"/>
<path d="M4435 1480 c-3 -5 -2 -10 4 -10 5 0 13 5 16 10 3 6 2 10 -4 10 -5 0
-13 -4 -16 -10z"/>
<path d="M4345 1460 c3 -5 8 -10 11 -10 2 0 4 5 4 10 0 6 -5 10 -11 10 -5 0
-7 -4 -4 -10z"/>
<path d="M4395 1450 c-3 -6 1 -7 9 -4 18 7 21 14 7 14 -6 0 -13 -4 -16 -10z"/>
<path d="M3688 1433 c7 -3 16 -2 19 1 4 3 -2 6 -13 5 -11 0 -14 -3 -6 -6z"/>
<path d="M4568 1433 c7 -3 16 -2 19 1 4 3 -2 6 -13 5 -11 0 -14 -3 -6 -6z"/>
<path d="M3968 1418 c9 -9 15 -9 24 0 9 9 7 12 -12 12 -19 0 -21 -3 -12 -12z"/>
<path d="M4488 1423 c7 -3 16 -2 19 1 4 3 -2 6 -13 5 -11 0 -14 -3 -6 -6z"/>
<path d="M3745 1410 c-3 -5 -2 -10 4 -10 5 0 13 5 16 10 3 6 2 10 -4 10 -5 0
-13 -4 -16 -10z"/>
<path d="M4523 1390 c1 -11 5 -20 9 -20 4 0 8 9 8 20 0 11 -4 20 -9 20 -6 0
-9 -9 -8 -20z"/>
<path d="M4078 1373 c7 -3 16 -2 19 1 4 3 -2 6 -13 5 -11 0 -14 -3 -6 -6z"/>
<path d="M4350 1370 c-10 -6 -7 -10 13 -15 15 -4 31 -15 37 -24 7 -13 11 -14
21 -3 11 10 10 12 -2 12 -8 0 -24 9 -36 19 -13 12 -25 16 -33 11z"/>
<path d="M4583 1365 c-17 -19 -16 -25 2 -25 8 0 15 9 15 20 0 23 -1 24 -17 5z"/>
<path d="M4243 1345 c0 -8 6 -16 14 -19 7 -3 13 -1 13 5 0 6 10 8 23 4 20 -5
20 -5 -3 9 -32 19 -47 20 -47 1z"/>
<path d="M4060 1346 c0 -2 7 -7 16 -10 8 -3 12 -2 9 4 -6 10 -25 14 -25 6z"/>
<path d="M3801 1326 c-11 -14 -11 -16 3 -16 10 0 14 -4 11 -10 -3 -5 3 -10 14
-10 14 0 19 6 18 20 -1 12 -7 18 -14 16 -6 -3 -13 0 -15 6 -2 6 -9 3 -17 -6z"/>
<path d="M3700 1315 c7 -8 17 -15 22 -15 6 0 5 7 -2 15 -7 8 -17 15 -22 15 -6
0 -5 -7 2 -15z"/>
<path d="M3915 1320 c3 -5 8 -10 11 -10 2 0 4 5 4 10 0 6 -5 10 -11 10 -5 0
-7 -4 -4 -10z"/>
<path d="M4196 1319 c3 -5 0 -9 -7 -9 -7 0 -10 -2 -7 -5 3 -3 16 -2 28 3 l24
9 -22 5 c-12 4 -20 2 -16 -3z"/>
<path d="M4450 1315 c0 -11 78 -82 85 -77 15 11 17 32 2 27 -17 -7 -38 9 -41
30 -2 11 -12 19 -24 20 -12 1 -22 1 -22 0z"/>
<path d="M4336 1302 c-3 -5 16 -19 43 -31 56 -24 61 -25 61 -12 0 11 -39 26
-59 22 -8 -1 -10 2 -5 11 4 7 4 10 -1 6 -4 -4 -14 -3 -21 3 -7 6 -15 6 -18 1z"/>
<path d="M4515 1301 c-3 -5 -2 -12 3 -15 5 -3 9 1 9 9 0 17 -3 19 -12 6z"/>
<path d="M3670 1290 c0 -10 32 -30 49 -30 6 0 3 9 -6 20 -18 21 -43 27 -43 10z"/>
<path d="M3750 1296 c0 -9 40 -13 46 -5 3 5 -6 9 -20 9 -14 0 -26 -2 -26 -4z"/>
<path d="M4165 1280 c3 -5 11 -10 16 -10 6 0 7 5 4 10 -3 6 -11 10 -16 10 -6
0 -7 -4 -4 -10z"/>
<path d="M3764 1261 c16 -18 62 -18 51 0 -3 4 -12 6 -20 2 -8 -3 -15 0 -15 6
0 6 -7 11 -17 11 -15 0 -15 -2 1 -19z"/>
<path d="M3830 1271 c0 -10 19 -25 25 -20 1 2 -3 10 -11 17 -8 7 -14 8 -14 3z"/>
<path d="M4135 1250 c-3 -5 -1 -10 4 -10 6 0 11 5 11 10 0 6 -2 10 -4 10 -3 0
-8 -4 -11 -10z"/>
<path d="M4197 1249 c7 -7 15 -10 18 -7 3 3 -2 9 -12 12 -14 6 -15 5 -6 -5z"/>
<path d="M4344 1239 c0 -21 2 -21 29 -10 17 6 17 8 -5 18 -20 9 -24 8 -24 -8z"/>
<path d="M4172 1234 c10 -10 20 -15 24 -12 3 4 -5 12 -18 18 -22 12 -22 12 -6
-6z"/>
<path d="M4453 1234 c0 -8 6 -14 14 -14 7 0 15 0 18 0 13 0 4 15 -13 21 -13 5
-19 3 -19 -7z"/>
<path d="M3748 1223 c7 -3 16 -2 19 1 4 3 -2 6 -13 5 -11 0 -14 -3 -6 -6z"/>
<path d="M4195 1210 c-19 -8 -19 -9 3 -9 12 -1 22 4 22 9 0 6 -1 10 -2 9 -2 0
-12 -4 -23 -9z"/>
<path d="M4394 1208 c10 -6 22 -6 26 -2 5 5 -3 10 -18 11 -22 1 -24 0 -8 -9z"/>
<path d="M4525 1206 c11 -8 25 -19 30 -23 16 -13 45 -12 45 2 0 7 -12 15 -27
17 -16 3 -37 8 -48 12 l-20 8 20 -16z"/>
<path d="M3428 1203 c7 -3 16 -2 19 1 4 3 -2 6 -13 5 -11 0 -14 -3 -6 -6z"/>
<path d="M4470 1190 c0 -5 5 -10 11 -10 5 0 7 5 4 10 -3 6 -8 10 -11 10 -2 0
-4 -4 -4 -10z"/>
<path d="M3640 1180 c0 -5 5 -10 10 -10 6 0 10 5 10 10 0 6 -4 10 -10 10 -5 0
-10 -4 -10 -10z"/>
<path d="M3940 1165 c14 -8 35 -14 48 -15 21 0 22 2 8 15 -8 8 -30 15 -48 15
l-33 -1 25 -14z"/>
<path d="M4008 1173 c7 -3 16 -2 19 1 4 3 -2 6 -13 5 -11 0 -14 -3 -6 -6z"/>
<path d="M4237 1169 c7 -7 15 -10 18 -7 3 3 -2 9 -12 12 -14 6 -15 5 -6 -5z"/>
<path d="M4505 1160 c-3 -5 3 -10 15 -10 12 0 18 5 15 10 -3 6 -10 10 -15 10
-5 0 -12 -4 -15 -10z"/>
<path d="M3870 1150 c0 -5 9 -10 19 -10 11 0 23 5 26 10 4 6 -5 10 -19 10 -14
0 -26 -4 -26 -10z"/>
<path d="M4440 1150 c0 -5 5 -10 11 -10 5 0 7 5 4 10 -3 6 -8 10 -11 10 -2 0
-4 -4 -4 -10z"/>
<path d="M4028 1143 c7 -3 16 -2 19 1 4 3 -2 6 -13 5 -11 0 -14 -3 -6 -6z"/>
<path d="M3932 1110 c-6 -11 -12 -26 -12 -34 0 -8 -6 -17 -12 -19 -9 -4 -9 -6
-2 -6 7 -1 21 17 33 39 21 41 16 56 -7 20z"/>
<path d="M4194 1121 c3 -5 -4 -11 -17 -15 -17 -5 -19 -8 -9 -15 8 -4 13 -12
12 -17 -1 -5 3 -10 9 -12 6 -2 8 3 5 12 -3 9 -2 16 3 16 5 0 9 9 10 20 1 11
-3 20 -8 20 -6 0 -8 -4 -5 -9z"/>
<path d="M4522 1118 c3 -7 13 -15 24 -17 16 -3 17 -1 5 13 -16 19 -34 21 -29
4z"/>
<path d="M3805 1104 c9 -9 19 -13 23 -10 3 4 0 11 -8 16 -24 15 -33 11 -15 -6z"/>
<path d="M3878 1113 c7 -3 16 -2 19 1 4 3 -2 6 -13 5 -11 0 -14 -3 -6 -6z"/>
<path d="M4028 1113 c7 -3 16 -2 19 1 4 3 -2 6 -13 5 -11 0 -14 -3 -6 -6z"/>
<path d="M4307 1094 c5 -13 2 -15 -15 -10 -11 4 -23 2 -27 -4 -6 -9 21 -15 53
-11 8 1 16 -6 18 -16 6 -23 41 -46 49 -33 3 5 -6 17 -20 26 -30 19 -34 40 -5
24 14 -8 20 -8 20 0 0 6 -13 13 -30 16 -16 4 -27 10 -24 15 3 5 -2 9 -10 9
-10 0 -13 -6 -9 -16z"/>
<path d="M4110 1090 c8 -5 20 -10 25 -10 6 0 3 5 -5 10 -8 5 -19 10 -25 10 -5
0 -3 -5 5 -10z"/>
<path d="M4440 1095 c0 -2 9 -9 19 -15 14 -7 22 -7 27 2 4 6 3 8 -4 4 -6 -3
-13 -2 -17 4 -6 10 -25 14 -25 5z"/>
<path d="M4570 1096 c0 -2 7 -6 15 -10 8 -3 15 -1 15 4 0 6 -7 10 -15 10 -8 0
-15 -2 -15 -4z"/>
<path d="M3587 1078 c-7 -4 3 -6 21 -4 18 2 34 0 37 -4 3 -4 13 -10 24 -13 14
-3 17 0 14 14 -4 16 -13 19 -45 17 -22 -2 -45 -6 -51 -10z"/>
<path d="M3965 1080 c-3 -5 -2 -10 4 -10 5 0 13 5 16 10 3 6 2 10 -4 10 -5 0
-13 -4 -16 -10z"/>
<path d="M4414 1060 c0 -13 4 -16 10 -10 7 7 7 13 0 20 -6 6 -10 3 -10 -10z"/>
<path d="M4215 1060 c-4 -6 -1 -10 6 -9 22 3 80 -22 73 -32 -3 -5 3 -6 12 -2
12 4 15 3 10 -5 -4 -7 -1 -12 8 -12 13 0 14 4 5 18 -18 29 -103 60 -114 42z"/>
<path d="M4580 1045 c0 -8 5 -15 10 -15 6 0 10 7 10 15 0 8 -4 15 -10 15 -5 0
-10 -7 -10 -15z"/>
<path d="M4476 1039 c3 -5 13 -9 23 -9 9 0 23 -6 31 -12 12 -11 12 -10 2 3
-13 17 -66 33 -56 18z"/>
<path d="M3645 1030 c3 -5 10 -10 16 -10 5 0 9 5 9 10 0 6 -7 10 -16 10 -8 0
-12 -4 -9 -10z"/>
<path d="M3683 1028 c1 -8 -10 -14 -26 -16 -27 -3 -28 -4 -10 -19 17 -14 17
-14 -1 -9 -16 5 -17 4 -7 -8 7 -8 10 -20 6 -26 -3 -5 1 -10 9 -10 9 0 16 8 16
18 0 10 8 18 18 19 31 3 72 22 72 35 0 9 -3 8 -10 -2 -8 -12 -12 -13 -19 -2
-4 8 -12 14 -17 14 -5 0 -8 4 -6 9 1 5 -5 9 -13 9 -8 0 -14 -6 -12 -12z"/>
<path d="M4060 1036 c0 -2 7 -7 16 -10 8 -3 12 -2 9 4 -6 10 -25 14 -25 6z"/>
<path d="M4400 1011 c0 -5 -8 -11 -17 -13 -15 -3 -15 -4 1 -20 13 -14 22 -15
36 -8 10 6 23 10 29 10 18 0 12 -18 -6 -23 -15 -4 -15 -6 4 -12 12 -4 25 -16
28 -26 7 -20 30 -26 40 -10 3 5 -4 12 -15 16 -11 4 -17 11 -14 17 5 7 2 8 -6
3 -8 -5 -11 -3 -8 6 3 8 15 15 27 17 43 7 15 27 -32 24 -38 -3 -47 0 -47 12 0
9 -4 16 -10 16 -5 0 -10 -4 -10 -9z m20 -25 c0 -3 -4 -8 -10 -11 -5 -3 -10 -1
-10 4 0 6 5 11 10 11 6 0 10 -2 10 -4z"/>
<path d="M3993 986 c-4 -7 -15 -16 -23 -19 -12 -4 -12 -6 2 -6 10 -1 22 8 28
19 12 22 6 28 -7 6z"/>
<path d="M4076 989 c3 -5 -1 -9 -8 -9 -8 -1 -7 -4 4 -10 18 -11 44 -4 51 13 3
7 -7 12 -24 13 -16 1 -26 -3 -23 -7z"/>
<path d="M4206 975 c4 -8 8 -15 10 -15 2 0 4 7 4 15 0 8 -4 15 -10 15 -5 0 -7
-7 -4 -15z"/>
<path d="M4260 979 c0 -5 5 -7 10 -4 6 3 10 8 10 11 0 2 -4 4 -10 4 -5 0 -10
-5 -10 -11z"/>
<path d="M4011 961 c-10 -6 -3 -12 25 -20 22 -7 56 -19 76 -28 33 -14 38 -14
59 1 18 12 19 16 7 16 -9 0 -18 -5 -20 -11 -2 -6 -21 -3 -52 10 -26 12 -57 21
-67 21 -11 0 -17 5 -14 10 8 12 4 12 -14 1z"/>
<path d="M3759 943 c-13 -17 -13 -17 6 -3 11 8 22 16 24 17 2 2 0 3 -6 3 -6 0
-17 -8 -24 -17z"/>
<path d="M3700 940 c0 -6 7 -13 15 -17 24 -9 27 1 5 15 -13 8 -20 8 -20 2z"/>
<path d="M4245 939 c-10 -15 -4 -17 35 -11 29 4 32 6 15 13 -29 11 -43 11 -50
-2z"/>
<path d="M4344 923 c10 -11 37 -12 30 -2 -3 5 -12 9 -21 9 -9 0 -13 -3 -9 -7z"/>
<path d="M3747 914 c-8 -8 1 -24 12 -24 4 0 8 7 8 15 0 16 -9 20 -20 9z"/>
<path d="M4557 909 c7 -7 15 -10 18 -7 3 3 -2 9 -12 12 -14 6 -15 5 -6 -5z"/>
<path d="M4393 895 c0 -8 4 -12 9 -9 5 3 6 10 3 15 -9 13 -12 11 -12 -6z"/>
<path d="M4440 900 c0 -5 4 -10 9 -10 6 0 13 5 16 10 3 6 -1 10 -9 10 -9 0
-16 -4 -16 -10z"/>
<path d="M4105 880 c3 -5 8 -10 11 -10 2 0 4 5 4 10 0 6 -5 10 -11 10 -5 0 -7
-4 -4 -10z"/>
<path d="M4058 873 c7 -3 16 -2 19 1 4 3 -2 6 -13 5 -11 0 -14 -3 -6 -6z"/>
<path d="M4243 868 c8 -5 5 -8 -8 -8 -18 0 -18 -1 3 -16 13 -9 26 -13 29 -10
4 3 1 6 -5 6 -7 0 -12 5 -12 10 0 6 15 10 35 8 19 -2 34 2 35 7 0 6 -20 10
-44 10 -25 0 -40 -3 -33 -7z m74 -4 c-3 -3 -12 -4 -19 -1 -8 3 -5 6 6 6 11 1
17 -2 13 -5z"/>
<path d="M3692 853 c-35 -7 -21 -27 21 -30 20 -1 37 0 37 3 0 7 -27 35 -32 33
-2 -1 -13 -4 -26 -6z"/>
<path d="M4335 841 c6 -5 24 -13 40 -17 39 -9 30 0 -15 15 -19 6 -30 7 -25 2z"/>
<path d="M3653 818 c3 -9 1 -19 -6 -22 -9 -3 -9 -5 0 -5 18 -1 27 19 13 32
-10 9 -12 8 -7 -5z"/>
<path d="M4235 820 c6 -9 -1 -10 -26 -5 -19 4 -31 4 -26 -1 4 -4 27 -8 50 -9
61 -2 139 -27 133 -42 -7 -17 11 -26 40 -19 28 7 32 24 7 32 -43 14 -99 39
-105 49 -5 7 -13 6 -26 -1 -13 -8 -24 -9 -37 -2 -13 8 -16 8 -10 -2z m170 -60
c3 -6 -4 -10 -17 -10 -18 0 -20 2 -8 10 19 12 18 12 25 0z"/>
<path d="M3615 810 c3 -5 8 -10 11 -10 2 0 4 5 4 10 0 6 -5 10 -11 10 -5 0 -7
-4 -4 -10z"/>
<path d="M4538 813 c7 -3 16 -2 19 1 4 3 -2 6 -13 5 -11 0 -14 -3 -6 -6z"/>
<path d="M3590 790 c-13 -9 -13 -10 0 -11 10 0 9 -3 -4 -8 -11 -4 -15 -10 -10
-13 5 -4 17 -1 26 6 21 15 9 39 -12 26z"/>
<path d="M4310 766 c0 -2 7 -6 15 -10 8 -3 15 -1 15 4 0 6 -7 10 -15 10 -8 0
-15 -2 -15 -4z"/>
<path d="M4445 750 c-3 -5 -1 -10 4 -10 6 0 11 5 11 10 0 6 -2 10 -4 10 -3 0
-8 -4 -11 -10z"/>
<path d="M4476 744 c-5 -14 -4 -15 9 -4 17 14 19 20 6 20 -5 0 -12 -7 -15 -16z"/>
<path d="M3650 740 c28 -6 26 -16 -2 -11 -5 0 -8 -3 -8 -9 0 -5 7 -10 15 -10
8 0 12 -6 10 -12 -3 -9 6 -14 26 -15 26 -2 29 0 19 12 -10 13 -8 15 11 15 23
0 23 1 -6 20 -17 11 -45 19 -65 19 l-35 -2 35 -7z"/>
<path d="M4541 699 c-13 -5 -21 -12 -18 -15 9 -9 77 5 77 16 0 12 -27 12 -59
-1z"/>
<path d="M2064 615 c-15 -20 -24 -38 -22 -41 7 -6 58 54 58 67 0 16 -8 10 -36
-26z"/>
<path d="M4525 519 c6 -28 15 -37 15 -15 0 9 5 14 10 11 6 -3 10 -4 10 -1 0 3
-9 10 -19 16 -17 9 -19 7 -16 -11z"/>
<path d="M4576 521 c-3 -5 1 -11 9 -15 9 -3 15 0 15 9 0 16 -16 20 -24 6z"/>
<path d="M4480 500 c-12 -8 -11 -10 8 -10 12 0 22 5 22 10 0 13 -11 13 -30 0z"/>
<path d="M4518 473 c7 -3 16 -2 19 1 4 3 -2 6 -13 5 -11 0 -14 -3 -6 -6z"/>
<path d="M4538 453 c7 -3 16 -2 19 1 4 3 -2 6 -13 5 -11 0 -14 -3 -6 -6z"/>
</g>
</svg>
